<?xml version="1.0" encoding="UTF-8" standalone="no"?>
<!-- Generator: Adobe Illustrator 18.0.0, SVG Export Plug-In . SVG Version: 6.00 Build 0)  -->

<svg
   xmlns:dc="http://purl.org/dc/elements/1.1/"
   xmlns:cc="http://creativecommons.org/ns#"
   xmlns:rdf="http://www.w3.org/1999/02/22-rdf-syntax-ns#"
   xmlns:svg="http://www.w3.org/2000/svg"
   xmlns="http://www.w3.org/2000/svg"
   xmlns:sodipodi="http://sodipodi.sourceforge.net/DTD/sodipodi-0.dtd"
   xmlns:inkscape="http://www.inkscape.org/namespaces/inkscape"
   version="1.1"
   x="0px"
   y="0px"
   viewBox="0 0 48 48"
   style="enable-background:new 0 0 48 48;"
   xml:space="preserve"
   id="svg3727"
   sodipodi:docname="facebookg.svg"
   inkscape:version="0.92.2 (5c3e80d, 2017-08-06)"><metadata
     id="metadata3733"><rdf:RDF><cc:Work
         rdf:about=""><dc:format>image/svg+xml</dc:format><dc:type
           rdf:resource="http://purl.org/dc/dcmitype/StillImage" /><dc:title></dc:title></cc:Work></rdf:RDF></metadata><defs
     id="defs3731" /><sodipodi:namedview
     pagecolor="#ffffff"
     bordercolor="#666666"
     borderopacity="1"
     objecttolerance="10"
     gridtolerance="10"
     guidetolerance="10"
     inkscape:pageopacity="0"
     inkscape:pageshadow="2"
     inkscape:window-width="2560"
     inkscape:window-height="1361"
     id="namedview3729"
     showgrid="false"
     inkscape:zoom="24.333333"
     inkscape:cx="17.239726"
     inkscape:cy="24"
     inkscape:window-x="2551"
     inkscape:window-y="-9"
     inkscape:window-maximized="1"
     inkscape:current-layer="svg3727" /><g
     id="Layer_283"><g
       id="g3723"><rect
         style="fill:#3C5B9B;"
         width="48"
         height="48"
         id="rect3717" /><g
         id="g3721"><path
           style="fill:#FFFFFF;"
           d="M20.018,39.035h6c0,0,0-8.282,0-15h4.453l0.547-6H26.25v-2.399c0-1.169,0.779-1.441,1.326-1.441     c0.547,0,3.366,0,3.366,0V9.053l-4.635-0.019c-5.145,0-6.314,3.834-6.314,6.288v2.712h-2.975v6h3     C20.018,30.834,20.018,39.035,20.018,39.035z"
           id="path3719" /></g></g></g><g
     id="Layer_1" /><path
     style="fill:#4d4d4d;stroke-width:0.04109589;fill-opacity:1"
     d="M 0,24.00411 V 0.02465753 H 24 48 V 24.00411 47.983562 H 24 0 Z m 26.044631,7.551369 0.01038,-7.489726 h 2.219067 c 1.220487,0 2.219068,-0.01568 2.219068,-0.03485 0,-0.01917 0.120205,-1.353485 0.267123,-2.965152 0.146918,-1.611666 0.267123,-2.955231 0.267123,-2.985699 0,-0.04583 -0.412164,-0.0554 -2.386445,-0.0554 h -2.386444 l 0.01538,-1.407535 c 0.01341,-1.22725 0.02479,-1.432506 0.08886,-1.602501 0.101914,-0.270414 0.386927,-0.574258 0.650323,-0.693288 0.216895,-0.09802 0.217545,-0.09805 2.076551,-0.11062 l 1.859589,-0.01257 V 11.611399 9.0246575 h -2.599567 c -2.86905,0 -3.253711,0.022754 -4.101549,0.2426141 -2.435626,0.6316048 -3.924741,2.4887254 -4.228017,5.2728894 -0.02391,0.219486 -0.04347,1.093287 -0.04347,1.941781 v 1.542716 h -1.479452 -1.479452 v 3.020547 3.020548 h 1.5 1.5 v 7.500267 7.500267 l 3.010274,-0.01054 3.010274,-0.01054 z"
     id="path3735"
     inkscape:connector-curvature="0" /></svg>