<?xml version="1.0" encoding="UTF-8" standalone="no"?>
<!-- Generator: Adobe Illustrator 18.0.0, SVG Export Plug-In . SVG Version: 6.00 Build 0)  -->

<svg
   xmlns:dc="http://purl.org/dc/elements/1.1/"
   xmlns:cc="http://creativecommons.org/ns#"
   xmlns:rdf="http://www.w3.org/1999/02/22-rdf-syntax-ns#"
   xmlns:svg="http://www.w3.org/2000/svg"
   xmlns="http://www.w3.org/2000/svg"
   xmlns:sodipodi="http://sodipodi.sourceforge.net/DTD/sodipodi-0.dtd"
   xmlns:inkscape="http://www.inkscape.org/namespaces/inkscape"
   version="1.1"
   x="0px"
   y="0px"
   viewBox="0 0 48 48"
   style="enable-background:new 0 0 48 48;"
   xml:space="preserve"
   id="svg5220"
   sodipodi:docname="githubg.svg"
   inkscape:version="0.92.2 (5c3e80d, 2017-08-06)"><metadata
     id="metadata5226"><rdf:RDF><cc:Work
         rdf:about=""><dc:format>image/svg+xml</dc:format><dc:type
           rdf:resource="http://purl.org/dc/dcmitype/StillImage" /><dc:title /></cc:Work></rdf:RDF></metadata><defs
     id="defs5224" /><sodipodi:namedview
     pagecolor="#ffffff"
     bordercolor="#666666"
     borderopacity="1"
     objecttolerance="10"
     gridtolerance="10"
     guidetolerance="10"
     inkscape:pageopacity="0"
     inkscape:pageshadow="2"
     inkscape:window-width="2560"
     inkscape:window-height="1361"
     id="namedview5222"
     showgrid="false"
     inkscape:zoom="24.333333"
     inkscape:cx="24"
     inkscape:cy="24"
     inkscape:window-x="2551"
     inkscape:window-y="-9"
     inkscape:window-maximized="1"
     inkscape:current-layer="svg5220" /><g
     id="nyt_x5F_exporter_x5F_info"
     style="display:none;" /><g
     id="g5035" /><g
     id="g5037" /><g
     id="g5039" /><g
     id="g5041" /><g
     id="g5043" /><g
     id="g5045" /><g
     id="g5047" /><g
     id="g5049" /><g
     id="g5051" /><g
     id="g5053" /><g
     id="g5055" /><g
     id="g5057" /><g
     id="g5059" /><g
     id="g5061" /><g
     id="g5063" /><g
     id="g5065" /><g
     id="g5067" /><g
     id="g5069" /><g
     id="g5071" /><g
     id="g5073" /><g
     id="g5075" /><g
     id="g5077" /><g
     id="g5079" /><g
     id="g5081" /><g
     id="g5083" /><g
     id="g5085" /><g
     id="g5087" /><g
     id="g5089" /><g
     id="g5091" /><g
     id="g5093" /><g
     id="g5095" /><g
     id="g5097" /><g
     id="g5099" /><g
     id="g5101" /><g
     id="g5103" /><g
     id="g5105" /><g
     id="g5107" /><g
     id="g5109" /><g
     id="g5111" /><g
     id="g5113" /><g
     id="g5115" /><g
     id="g5117" /><g
     id="g5119" /><g
     id="g5121" /><g
     id="g5123" /><g
     id="g5125" /><g
     id="g5127" /><g
     id="g5129" /><g
     id="g5131" /><g
     id="g5133" /><g
     id="g5135" /><g
     id="g5137" /><g
     id="g5139" /><g
     id="g5141" /><g
     id="g5143" /><g
     id="g5145" /><g
     id="g5147" /><g
     id="g5149" /><g
     id="g5151" /><g
     id="g5153" /><g
     id="g5155" /><g
     id="g5157" /><g
     id="g5159" /><g
     id="g5161" /><g
     id="g5163" /><g
     id="g5165" /><g
     id="g5167" /><g
     id="g5169" /><g
     id="g5171" /><g
     id="g5173" /><g
     id="g5175" /><g
     id="g5177" /><g
     id="g5179" /><g
     id="g5181" /><g
     id="g5183" /><g
     id="g5185" /><g
     id="g5187" /><g
     id="g5189" /><g
     id="g5191" /><g
     id="g5193" /><g
     id="g5195" /><g
     id="g5197" /><g
     id="g5204"><g
       id="g5202"><rect
         style="fill:#595959;"
         width="48"
         height="48"
         id="rect5199" /><path
         id="path9-5_8_"
         style="fill:#FFFFFF;"
         d="M13.056,22.651c-0.047,0,0.514,1.206,0.529,1.206c1.224,2.22,3.582,3.6,7.56,3.981    c-0.568,0.431-1.25,1.25-1.345,2.194c-0.714,0.461-2.15,0.614-3.265,0.262c-1.564-0.494-2.163-3.588-4.505-3.147    c-0.507,0.095-0.406,0.43,0.032,0.714c0.714,0.461,1.386,1.039,1.903,2.269c0.399,0.943,1.235,2.631,3.881,2.631    c1.049,0,1.785-0.127,1.785-0.127s0.02,2.41,0.02,3.347c0,1.081-1.46,1.386-1.46,1.905c0,0.205,0.484,0.225,0.871,0.225    c0.767,0,2.363-0.64,2.363-1.763c0-0.892,0.015-3.892,0.015-4.417c0-1.147,0.615-1.511,0.615-1.511s0.076,6.125-0.147,6.946    c-0.262,0.965-0.735,0.828-0.735,1.259c0,0.641,1.921,0.156,2.558-1.25c0.492-1.094,0.277-7.103,0.277-7.103l0.525-0.011    c0,0,0.03,2.75,0.011,4.008c-0.018,1.302-0.107,2.949,0.667,3.725c0.508,0.51,2.156,1.407,2.156,0.588    c0-0.476-0.903-0.866-0.903-2.153v-5.925c0.721,0,0.613,1.947,0.613,1.947l0.052,3.621c0,0-0.159,1.319,1.428,1.87    c0.56,0.197,1.756,0.248,1.813-0.079c0.057-0.329-1.442-0.819-1.456-1.841c-0.009-0.622,0.028-0.986,0.028-3.693    c0-2.708-0.364-3.708-1.632-4.505c3.911-0.401,6.333-1.369,7.512-3.959c0.092,0.002,0.481-1.21,0.43-1.21    c0.264-0.978,0.409-2.135,0.435-3.504c-0.007-3.715-1.785-5.029-2.126-5.645c0.503-2.813-0.085-4.092-0.358-4.531    c-1.008-0.358-3.506,0.922-4.872,1.823c-2.224-0.65-6.928-0.588-8.692,0.168c-3.255-2.329-4.977-1.972-4.977-1.972    s-1.113,1.993-0.294,4.91c-1.071,1.364-1.869,2.329-1.869,4.887C12.504,20.235,12.673,21.525,13.056,22.651L13.056,22.651z" /></g></g><g
     id="g5206" /><g
     id="g5208" /><g
     id="g5210" /><g
     id="g5212" /><g
     id="g5214" /><g
     id="g5216" /><g
     id="g5218" /><path
     style="fill:#4d4d4d;fill-opacity:1;stroke-width:0.04109589"
     d="M 0.00821885,23.983527 V -0.01650863 l 23.98972615,0.01030894 23.989727,0.01030895 0.01031,23.98972674 0.01031,23.989726 H 24.008254 0.00821885 Z M 22.076712,38.807566 c 0.685571,-0.235301 1.299363,-0.743636 1.577547,-1.306503 0.311797,-0.630879 0.374508,-1.416573 0.374508,-4.692163 v -2.537676 l 0.256849,4e-6 0.25685,5e-6 v 2.867516 c 0,2.866476 0.01628,3.28052 0.150654,3.831114 0.152752,0.625904 0.396906,0.979655 0.929499,1.346733 0.786162,0.541846 1.480532,0.729344 1.684677,0.454906 0.123961,-0.166645 0.06793,-0.344155 -0.240426,-0.761687 -0.308319,-0.417484 -0.441564,-0.673355 -0.530002,-1.017764 -0.09341,-0.363767 -0.0952,-6.474243 -0.0019,-6.474243 0.116106,0 0.309695,0.225449 0.388172,0.452055 0.129793,0.374782 0.162454,0.945968 0.186381,3.259463 0.02161,2.089105 0.02755,2.225401 0.107371,2.462345 0.218924,0.649866 0.847517,1.159298 1.634821,1.324913 0.339254,0.07136 1.061567,0.08307 1.28562,0.02084 0.359671,-0.0999 0.311757,-0.238867 -0.225311,-0.653468 -0.508498,-0.392545 -0.785504,-0.681821 -0.899568,-0.939412 -0.08402,-0.189746 -0.08597,-0.251406 -0.09185,-2.906188 -0.0052,-2.338884 -0.01565,-2.77174 -0.07601,-3.143835 -0.191566,-1.180786 -0.521183,-1.816147 -1.213795,-2.339684 l -0.302085,-0.228341 0.589756,-0.072 c 3.325674,-0.405988 5.30182,-1.338339 6.424742,-3.031212 0.237819,-0.358527 0.623378,-1.097043 0.724492,-1.387723 0.114728,-0.329818 0.307665,-1.152786 0.404445,-1.725151 0.147482,-0.872223 0.184951,-1.370567 0.184628,-2.45562 -2.88e-4,-0.934069 -0.01225,-1.135397 -0.09516,-1.600297 -0.270136,-1.514727 -0.653138,-2.315691 -1.816554,-3.798931 l -0.173462,-0.221147 0.0779,-0.580223 c 0.05781,-0.43055 0.07736,-0.818747 0.07582,-1.504881 -0.0019,-0.852862 -0.01057,-0.960754 -0.111338,-1.389544 C 33.550892,9.7913451 33.438886,9.4613698 33.348936,9.2789488 33.197057,8.9709355 33.188514,8.9621246 33.008219,8.9275695 32.306967,8.7931679 30.556471,9.4443084 28.850313,10.474206 l -0.52092,0.314446 -0.444833,-0.100131 c -2.261486,-0.509055 -6.273003,-0.416979 -8.003565,0.183705 l -0.243662,0.08458 -0.454968,-0.302516 C 17.61171,9.6099314 16.265212,9.0568272 15.146575,8.996496 14.600994,8.9670709 14.637331,8.9370006 14.417294,9.5999998 13.997935,10.863583 13.957965,12.17321 14.294838,13.612351 l 0.06862,0.293173 -0.329623,0.426005 c -0.853985,1.103692 -1.216074,1.857654 -1.418366,2.953402 -0.07418,0.401799 -0.08768,0.635762 -0.09012,1.561644 -0.0029,1.110733 0.02912,1.530562 0.185067,2.424658 0.212202,1.216626 0.67749,2.382394 1.303316,3.265429 0.314404,0.443621 1.051739,1.171681 1.529798,1.510554 1.197952,0.84917 2.899716,1.445172 4.848243,1.697979 0.806722,0.104666 0.763354,0.05442 0.382293,0.442929 -0.181543,0.185094 -0.389024,0.424485 -0.461066,0.53198 -0.207297,0.309309 -0.41617,0.782336 -0.46877,1.061605 l -0.04835,0.256688 -0.246575,0.115478 c -0.505022,0.236513 -0.831199,0.295726 -1.643836,0.298412 -0.638081,0.0021 -0.790372,-0.01035 -1.108308,-0.09067 -0.679168,-0.171578 -0.949989,-0.390939 -1.805777,-1.462654 -0.962929,-1.205889 -1.458246,-1.617574 -2.10937,-1.753213 -0.290697,-0.06056 -0.863263,-0.02662 -1.03316,0.06124 -0.291931,0.150963 -0.187722,0.371103 0.359259,0.758921 0.870388,0.617119 1.198459,1.020377 1.741261,2.140322 0.451077,0.930691 0.642298,1.220996 1.07565,1.633015 0.847282,0.805572 1.840686,1.091706 3.464861,0.997996 0.356654,-0.02058 0.753172,-0.0499 0.881151,-0.06517 l 0.232691,-0.02775 0.0268,0.220988 c 0.01474,0.121542 0.02099,0.942219 0.01388,1.823726 -0.01267,1.572393 -0.01467,1.606026 -0.105634,1.776255 -0.135826,0.254188 -0.313783,0.441161 -0.685778,0.720524 -0.421352,0.31643 -0.550371,0.435162 -0.622143,0.572536 -0.127125,0.243325 0.08109,0.340983 0.722557,0.338895 0.520663,-0.0017 0.817949,-0.07469 1.350434,-0.331605 0.298262,-0.143903 0.447035,-0.247952 0.662243,-0.46316 0.465237,-0.465238 0.439701,-0.286452 0.464268,-3.250431 0.01801,-2.173057 0.03041,-2.561536 0.08842,-2.770896 0.0824,-0.297368 0.241347,-0.596996 0.394561,-0.743785 l 0.114505,-0.109703 0.03063,0.322466 c 0.03987,0.419733 -0.01179,4.988818 -0.06545,5.788219 -0.06459,0.962222 -0.159256,1.239257 -0.576887,1.688178 -0.183239,0.196969 -0.243554,0.291854 -0.243554,0.383146 0,0.287025 0.393474,0.373147 0.904109,0.197886 z"
     id="path1011"
     inkscape:connector-curvature="0" /></svg>