<?xml version="1.0" encoding="UTF-8" standalone="no"?>
<!-- Generator: Adobe Illustrator 18.0.0, SVG Export Plug-In . SVG Version: 6.00 Build 0)  -->

<svg
   xmlns:dc="http://purl.org/dc/elements/1.1/"
   xmlns:cc="http://creativecommons.org/ns#"
   xmlns:rdf="http://www.w3.org/1999/02/22-rdf-syntax-ns#"
   xmlns:svg="http://www.w3.org/2000/svg"
   xmlns="http://www.w3.org/2000/svg"
   xmlns:sodipodi="http://sodipodi.sourceforge.net/DTD/sodipodi-0.dtd"
   xmlns:inkscape="http://www.inkscape.org/namespaces/inkscape"
   version="1.1"
   x="0px"
   y="0px"
   viewBox="0 0 48 48"
   style="enable-background:new 0 0 48 48;"
   xml:space="preserve"
   id="svg1393"
   sodipodi:docname="github.svg"
   inkscape:version="0.92.2 (5c3e80d, 2017-08-06)"><metadata
     id="metadata1399"><rdf:RDF><cc:Work
         rdf:about=""><dc:format>image/svg+xml</dc:format><dc:type
           rdf:resource="http://purl.org/dc/dcmitype/StillImage" /></cc:Work></rdf:RDF></metadata><defs
     id="defs1397" /><sodipodi:namedview
     pagecolor="#ffffff"
     bordercolor="#666666"
     borderopacity="1"
     objecttolerance="10"
     gridtolerance="10"
     guidetolerance="10"
     inkscape:pageopacity="0"
     inkscape:pageshadow="2"
     inkscape:window-width="2560"
     inkscape:window-height="1361"
     id="namedview1395"
     showgrid="false"
     inkscape:zoom="13.906433"
     inkscape:cx="27.11025"
     inkscape:cy="10.718593"
     inkscape:window-x="2551"
     inkscape:window-y="-9"
     inkscape:window-maximized="1"
     inkscape:current-layer="svg1393" /><g
     id="nyt_x5F_exporter_x5F_info"
     style="display:none;" /><g
     id="g1208" /><g
     id="g1210" /><g
     id="g1212" /><g
     id="g1214" /><g
     id="g1216" /><g
     id="g1218" /><g
     id="g1220" /><g
     id="g1222" /><g
     id="g1224" /><g
     id="g1226" /><g
     id="g1228" /><g
     id="g1230" /><g
     id="g1232" /><g
     id="g1234" /><g
     id="g1236" /><g
     id="g1238" /><g
     id="g1240" /><g
     id="g1242" /><g
     id="g1244" /><g
     id="g1246" /><g
     id="g1248" /><g
     id="g1250" /><g
     id="g1252" /><g
     id="g1254" /><g
     id="g1256" /><g
     id="g1258" /><g
     id="g1260" /><g
     id="g1262" /><g
     id="g1264" /><g
     id="g1266" /><g
     id="g1268" /><g
     id="g1270" /><g
     id="g1272" /><g
     id="g1274" /><g
     id="g1276" /><g
     id="g1278" /><g
     id="g1280" /><g
     id="g1282" /><g
     id="g1284" /><g
     id="g1286" /><g
     id="g1288" /><g
     id="g1290" /><g
     id="g1292" /><g
     id="g1294" /><g
     id="g1296" /><g
     id="g1298" /><g
     id="g1300" /><g
     id="g1302" /><g
     id="g1304" /><g
     id="g1306" /><g
     id="g1308" /><g
     id="g1310" /><g
     id="g1312" /><g
     id="g1314" /><g
     id="g1316" /><g
     id="g1318" /><g
     id="g1320" /><g
     id="g1322" /><g
     id="g1324" /><g
     id="g1326" /><g
     id="g1328" /><g
     id="g1330" /><g
     id="g1332" /><g
     id="g1334" /><g
     id="g1336" /><g
     id="g1338" /><g
     id="g1340" /><g
     id="g1342" /><g
     id="g1344" /><g
     id="g1346" /><g
     id="g1348" /><g
     id="g1350" /><g
     id="g1352" /><g
     id="g1354" /><g
     id="g1356" /><g
     id="g1358" /><g
     id="g1360" /><g
     id="g1362" /><g
     id="g1364" /><g
     id="g1366" /><g
     id="g1368" /><g
     id="g1370" /><g
     id="g1377"><g
       id="g1375"><rect
         style="fill:#595959;"
         width="48"
         height="48"
         id="rect1372" /><path
         id="path9-5_8_"
         style="fill:#FFFFFF;"
         d="M13.056,22.651c-0.047,0,0.514,1.206,0.529,1.206c1.224,2.22,3.582,3.6,7.56,3.981    c-0.568,0.431-1.25,1.25-1.345,2.194c-0.714,0.461-2.15,0.614-3.265,0.262c-1.564-0.494-2.163-3.588-4.505-3.147    c-0.507,0.095-0.406,0.43,0.032,0.714c0.714,0.461,1.386,1.039,1.903,2.269c0.399,0.943,1.235,2.631,3.881,2.631    c1.049,0,1.785-0.127,1.785-0.127s0.02,2.41,0.02,3.347c0,1.081-1.46,1.386-1.46,1.905c0,0.205,0.484,0.225,0.871,0.225    c0.767,0,2.363-0.64,2.363-1.763c0-0.892,0.015-3.892,0.015-4.417c0-1.147,0.615-1.511,0.615-1.511s0.076,6.125-0.147,6.946    c-0.262,0.965-0.735,0.828-0.735,1.259c0,0.641,1.921,0.156,2.558-1.25c0.492-1.094,0.277-7.103,0.277-7.103l0.525-0.011    c0,0,0.03,2.75,0.011,4.008c-0.018,1.302-0.107,2.949,0.667,3.725c0.508,0.51,2.156,1.407,2.156,0.588    c0-0.476-0.903-0.866-0.903-2.153v-5.925c0.721,0,0.613,1.947,0.613,1.947l0.052,3.621c0,0-0.159,1.319,1.428,1.87    c0.56,0.197,1.756,0.248,1.813-0.079c0.057-0.329-1.442-0.819-1.456-1.841c-0.009-0.622,0.028-0.986,0.028-3.693    c0-2.708-0.364-3.708-1.632-4.505c3.911-0.401,6.333-1.369,7.512-3.959c0.092,0.002,0.481-1.21,0.43-1.21    c0.264-0.978,0.409-2.135,0.435-3.504c-0.007-3.715-1.785-5.029-2.126-5.645c0.503-2.813-0.085-4.092-0.358-4.531    c-1.008-0.358-3.506,0.922-4.872,1.823c-2.224-0.65-6.928-0.588-8.692,0.168c-3.255-2.329-4.977-1.972-4.977-1.972    s-1.113,1.993-0.294,4.91c-1.071,1.364-1.869,2.329-1.869,4.887C12.504,20.235,12.673,21.525,13.056,22.651L13.056,22.651z" /></g></g><g
     id="g1379" /><g
     id="g1381" /><g
     id="g1383" /><g
     id="g1385" /><g
     id="g1387" /><g
     id="g1389" /><g
     id="g1391" /><path
     style="fill:#000000;fill-opacity:1;stroke-width:0.07190917"
     d="M 0.01487719,23.985403 V 0.00369654 H 23.996583 47.97829 V 23.985403 47.967109 H 23.996583 0.01487719 Z M 22.394914,38.673126 c 0.48661,-0.222777 0.93667,-0.619982 1.187558,-1.04809 0.346048,-0.590486 0.388994,-1.022269 0.428626,-4.309419 l 0.03663,-3.038162 h 0.244087 0.244088 l 0.0025,2.930298 c 0.0027,3.112212 0.05269,3.73596 0.345697,4.3103 0.363298,0.712122 1.754927,1.529492 2.306181,1.354531 0.253052,-0.08032 0.19209,-0.420429 -0.165602,-0.923918 -0.554278,-0.7802 -0.547238,-0.724886 -0.547238,-4.299986 0,-3.326086 0.0012,-3.33789 0.306012,-2.929671 0.226988,0.304027 0.260719,0.656056 0.305643,3.189858 0.02554,1.440659 0.07703,2.577828 0.125344,2.768503 0.112328,0.443302 0.675435,1.004861 1.207102,1.203783 0.78479,0.293628 1.984936,0.272914 1.925521,-0.03323 -0.01236,-0.06372 -0.264752,-0.315086 -0.56086,-0.558602 -0.881533,-0.724963 -0.820933,-0.4498 -0.871194,-3.955724 -0.04766,-3.324211 -0.07377,-3.547395 -0.511064,-4.367843 -0.129765,-0.243463 -0.395371,-0.576133 -0.619431,-0.775836 -0.45024,-0.401292 -0.493546,-0.362641 0.562565,-0.502083 5.08191,-0.670983 7.096566,-2.870789 7.309288,-7.981024 0.0724,-1.739318 -0.152614,-2.981935 -0.761759,-4.206687 -0.196707,-0.3955 -0.521665,-0.929426 -0.72213,-1.186501 -0.643965,-0.82582 -0.604459,-0.716037 -0.513343,-1.426527 0.17842,-1.39124 0.05535,-2.857077 -0.302717,-3.6056732 l -0.155471,-0.3250323 -0.539318,0.00887 c -0.376499,0.00619 -0.712993,0.067367 -1.114592,0.2026436 -0.633969,0.2135508 -1.955223,0.8554109 -2.722825,1.3227379 -0.450333,0.27417 -0.516573,0.294525 -0.755046,0.232025 -1.968435,-0.515895 -6.225531,-0.457233 -8.039493,0.110781 L 19.658239,10.949752 18.91509,10.48384 C 17.420716,9.5469544 16.232386,9.0738971 15.212182,9.0097649 l -0.586758,-0.036885 -0.21631,0.6752759 c -0.245923,0.7677222 -0.395141,1.8987412 -0.335195,2.5406552 0.02234,0.239219 0.09198,0.728805 0.154757,1.087968 l 0.114138,0.653024 -0.481875,0.638889 c -1.010577,1.33986 -1.331308,2.369024 -1.332922,4.277092 -5.04e-4,0.614063 0.03223,1.390682 0.07279,1.72582 0.241061,1.992182 0.971369,3.630253 2.12551,4.767492 1.270963,1.252351 3.093788,2.042196 5.503448,2.38469 0.410649,0.05837 0.77439,0.106715 0.808313,0.10744 0.03392,7.26e-4 -0.120414,0.197998 -0.342971,0.438385 -0.446954,0.482765 -0.653577,0.838607 -0.830846,1.430869 l -0.117867,0.393798 -0.499589,0.175578 c -0.412746,0.145057 -0.643336,0.176515 -1.326544,0.180975 -1.447653,0.0094 -1.848547,-0.200802 -2.901442,-1.521666 -1.185022,-1.486619 -1.597059,-1.774681 -2.542927,-1.777807 -0.452267,-0.0015 -0.618039,0.02554 -0.708134,0.1155 -0.169659,0.169396 -0.05247,0.343097 0.495064,0.733809 0.756963,0.540158 1.144176,1.02721 1.684296,2.118573 0.748771,1.512961 1.468072,2.183205 2.678778,2.49608 0.493943,0.127647 1.861016,0.163394 2.620365,0.06852 l 0.39982,-0.04995 v 1.765379 c 0,1.075955 -0.02995,1.844433 -0.0767,1.96781 -0.09926,0.261975 -0.281478,0.456129 -0.876097,0.933485 -0.706746,0.567369 -0.625693,0.814994 0.266765,0.814994 0.823669,0 1.859808,-0.503395 2.250495,-1.093373 l 0.197311,-0.297959 0.03595,-2.737997 c 0.03278,-2.496036 0.04784,-2.760238 0.170467,-2.989679 0.20617,-0.385759 0.346351,-0.525532 0.416388,-0.415177 0.07641,0.120402 0.07122,2.660213 -0.01,4.873546 -0.07309,1.992744 -0.125609,2.239815 -0.579607,2.726685 -0.315306,0.338136 -0.342604,0.441279 -0.164045,0.619838 0.160739,0.16074 0.595486,0.110838 1.117858,-0.128312 z"
     id="path1944"
     inkscape:connector-curvature="0" /></svg>