<?xml version="1.0" encoding="UTF-8" standalone="no"?>
<!-- Generator: Adobe Illustrator 18.0.0, SVG Export Plug-In . SVG Version: 6.00 Build 0)  -->

<svg
   xmlns:dc="http://purl.org/dc/elements/1.1/"
   xmlns:cc="http://creativecommons.org/ns#"
   xmlns:rdf="http://www.w3.org/1999/02/22-rdf-syntax-ns#"
   xmlns:svg="http://www.w3.org/2000/svg"
   xmlns="http://www.w3.org/2000/svg"
   xmlns:sodipodi="http://sodipodi.sourceforge.net/DTD/sodipodi-0.dtd"
   xmlns:inkscape="http://www.inkscape.org/namespaces/inkscape"
   version="1.1"
   x="0px"
   y="0px"
   viewBox="0 0 48 48"
   style="enable-background:new 0 0 48 48;"
   xml:space="preserve"
   id="svg5546"
   sodipodi:docname="instagramg.svg"
   inkscape:version="0.92.2 (5c3e80d, 2017-08-06)"><metadata
     id="metadata5552"><rdf:RDF><cc:Work
         rdf:about=""><dc:format>image/svg+xml</dc:format><dc:type
           rdf:resource="http://purl.org/dc/dcmitype/StillImage" /><dc:title></dc:title></cc:Work></rdf:RDF></metadata><defs
     id="defs5550" /><sodipodi:namedview
     pagecolor="#ffffff"
     bordercolor="#666666"
     borderopacity="1"
     objecttolerance="10"
     gridtolerance="10"
     guidetolerance="10"
     inkscape:pageopacity="0"
     inkscape:pageshadow="2"
     inkscape:window-width="2560"
     inkscape:window-height="1361"
     id="namedview5548"
     showgrid="false"
     inkscape:zoom="13.906433"
     inkscape:cx="32.441173"
     inkscape:cy="14.033792"
     inkscape:window-x="2551"
     inkscape:window-y="-9"
     inkscape:window-maximized="1"
     inkscape:current-layer="svg5546" /><g
     id="Layer_255"><g
       id="g5542"><rect
         style="fill:#517FA4;"
         width="48"
         height="48"
         id="rect5536" /><g
         id="g5540"><path
           style="fill:#FFFFFF;"
           d="M33.219,9.035H14.815c-3.197,0-5.797,2.6-5.797,5.797v6.125v12.281c0,3.197,2.6,5.797,5.797,5.797     h18.404c3.197,0,5.799-2.6,5.799-5.797V20.957v-6.125C39.018,11.634,36.417,9.035,33.219,9.035z M34.883,12.494l0.662-0.004     v0.662v4.422l-5.066,0.017l-0.018-5.084L34.883,12.494z M19.737,20.957c0.961-1.33,2.519-2.201,4.281-2.201     s3.32,0.871,4.281,2.201c0.625,0.867,1,1.93,1,3.078c0,2.91-2.371,5.279-5.281,5.279c-2.912,0-5.281-2.369-5.281-5.279     C18.737,22.886,19.112,21.824,19.737,20.957z M36.096,33.238c0,1.586-1.291,2.875-2.877,2.875H14.815     c-1.586,0-2.875-1.289-2.875-2.875V20.957h4.478c-0.387,0.951-0.603,1.99-0.603,3.078c0,4.523,3.68,8.203,8.203,8.203     c4.523,0,8.203-3.68,8.203-8.203c0-1.088-0.219-2.127-0.605-3.078h4.48V33.238z"
           id="path5538" /></g></g></g><g
     id="Layer_1" /><path
     style="fill:#4d4d4d;fill-opacity:1;stroke-width:0.07190917"
     d="M 0.01014027,24.01398 V -0.00368113 H 23.991847 47.973553 V 24.01398 48.031641 H 23.991847 0.01014027 Z M 34.598448,38.876376 c 0.859641,-0.230623 1.857765,-0.775472 2.472763,-1.349812 0.95863,-0.895255 1.491748,-1.789783 1.773373,-2.975579 0.14,-0.58947 0.142788,-0.831202 0.123797,-10.729513 L 38.948953,13.695015 38.779979,13.191651 C 38.232507,11.560761 37.227855,10.377618 35.784949,9.6645103 34.533107,9.045829 35.502637,9.0928282 23.991847,9.0928282 H 13.780745 L 13.243961,9.261384 C 11.168338,9.9131521 9.7468137,11.382981 9.1969725,13.445893 L 9.0347404,14.05456 v 9.995374 9.995374 l 0.1659404,0.607336 c 0.5018002,1.836568 1.7626792,3.267245 3.4885202,3.958305 1.086426,0.435027 0.731047,0.42254 11.554328,0.405965 9.147859,-0.01401 9.922475,-0.02452 10.354919,-0.140538 z"
     id="path5554"
     inkscape:connector-curvature="0" /><path
     style="fill:#4d4d4d;fill-opacity:1;stroke-width:0.07190917"
     d="m 13.981087,35.990915 c -0.739872,-0.232493 -1.462997,-0.875903 -1.80535,-1.606334 l -0.192721,-0.411182 -0.01945,-6.525757 -0.01946,-6.525756 h 2.239049 c 2.100242,0 2.236485,0.0078 2.197693,0.125841 -0.24495,0.745366 -0.409768,1.388184 -0.4736,1.847119 -0.572267,4.114444 2.021957,7.987295 6.082848,9.080931 0.644822,0.173657 0.825044,0.190525 2.037705,0.190717 1.228666,2.16e-4 1.385268,-0.01488 2.049411,-0.197262 4.282534,-1.176055 6.877442,-5.40948 5.93408,-9.681072 -0.07424,-0.336176 -0.185867,-0.752823 -0.248053,-0.925883 -0.06219,-0.17306 -0.113066,-0.342946 -0.113066,-0.377523 0,-0.03458 1.003961,-0.06287 2.231025,-0.06287 h 2.231026 l -0.01982,6.489802 -0.01982,6.489802 -0.229029,0.483469 c -0.305225,0.644314 -0.789737,1.150206 -1.379839,1.440728 l -0.473424,0.233078 -9.853092,0.01369 c -8.005879,0.01112 -9.909902,-0.0042 -10.156115,-0.08154 z"
     id="path5556"
     inkscape:connector-curvature="0" /><path
     style="fill:#4d4d4d;fill-opacity:1;stroke-width:0.07190917"
     d="m 23.344664,29.283875 c -1.34382,-0.185842 -2.718918,-0.98356 -3.521513,-2.04289 -0.724358,-0.956067 -1.066733,-1.991725 -1.066808,-3.227005 -1.38e-4,-2.281028 1.42795,-4.238794 3.653502,-5.008587 0.519358,-0.17964 0.673125,-0.199264 1.582002,-0.201904 1.123217,-0.0033 1.606874,0.105782 2.457508,0.554063 2.573505,1.356228 3.583113,4.535408 2.252513,7.092989 -1.022801,1.965954 -3.221323,3.128715 -5.357204,2.833334 z"
     id="path5558"
     inkscape:connector-curvature="0" /><path
     style="fill:#4d4d4d;fill-opacity:1;stroke-width:0.07190917"
     d="m 30.475322,15.942176 c -0.026,-0.919538 -0.04735,-2.068287 -0.04744,-2.552775 l -1.65e-4,-0.880888 h 2.552775 2.552775 v 2.552776 2.552775 h -2.505335 -2.505336 z"
     id="path5560"
     inkscape:connector-curvature="0" /></svg>