<?xml version="1.0" encoding="iso-8859-1"?>
<!-- Generator: Adobe Illustrator 18.0.0, SVG Export Plug-In . SVG Version: 6.00 Build 0)  -->
<!DOCTYPE svg PUBLIC "-//W3C//DTD SVG 1.1//EN" "http://www.w3.org/Graphics/SVG/1.1/DTD/svg11.dtd">
<svg version="1.1" xmlns="http://www.w3.org/2000/svg" xmlns:xlink="http://www.w3.org/1999/xlink" x="0px" y="0px"
	 viewBox="0 0 48 48" style="enable-background:new 0 0 48 48;" xml:space="preserve">
<g id="Layer_255">
	<g>
		<rect style="fill:#517FA4;" width="48" height="48"/>
		<g>
			<path style="fill:#FFFFFF;" d="M33.219,9.035H14.815c-3.197,0-5.797,2.6-5.797,5.797v6.125v12.281c0,3.197,2.6,5.797,5.797,5.797
				h18.404c3.197,0,5.799-2.6,5.799-5.797V20.957v-6.125C39.018,11.634,36.417,9.035,33.219,9.035z M34.883,12.494l0.662-0.004
				v0.662v4.422l-5.066,0.017l-0.018-5.084L34.883,12.494z M19.737,20.957c0.961-1.33,2.519-2.201,4.281-2.201
				s3.32,0.871,4.281,2.201c0.625,0.867,1,1.93,1,3.078c0,2.91-2.371,5.279-5.281,5.279c-2.912,0-5.281-2.369-5.281-5.279
				C18.737,22.886,19.112,21.824,19.737,20.957z M36.096,33.238c0,1.586-1.291,2.875-2.877,2.875H14.815
				c-1.586,0-2.875-1.289-2.875-2.875V20.957h4.478c-0.387,0.951-0.603,1.99-0.603,3.078c0,4.523,3.68,8.203,8.203,8.203
				c4.523,0,8.203-3.68,8.203-8.203c0-1.088-0.219-2.127-0.605-3.078h4.48V33.238z"/>
		</g>
	</g>
</g>
<g id="Layer_1">
</g>
</svg>
