<?xml version="1.0" encoding="UTF-8" standalone="no"?>
<!-- Generator: Adobe Illustrator 18.0.0, SVG Export Plug-In . SVG Version: 6.00 Build 0)  -->

<svg
   xmlns:dc="http://purl.org/dc/elements/1.1/"
   xmlns:cc="http://creativecommons.org/ns#"
   xmlns:rdf="http://www.w3.org/1999/02/22-rdf-syntax-ns#"
   xmlns:svg="http://www.w3.org/2000/svg"
   xmlns="http://www.w3.org/2000/svg"
   xmlns:sodipodi="http://sodipodi.sourceforge.net/DTD/sodipodi-0.dtd"
   xmlns:inkscape="http://www.inkscape.org/namespaces/inkscape"
   version="1.1"
   x="0px"
   y="0px"
   viewBox="0 0 48 48"
   style="enable-background:new 0 0 48 48;"
   xml:space="preserve"
   id="svg5508"
   sodipodi:docname="linkeding.svg"
   inkscape:version="0.92.2 (5c3e80d, 2017-08-06)"><metadata
     id="metadata5514"><rdf:RDF><cc:Work
         rdf:about=""><dc:format>image/svg+xml</dc:format><dc:type
           rdf:resource="http://purl.org/dc/dcmitype/StillImage" /><dc:title></dc:title></cc:Work></rdf:RDF></metadata><defs
     id="defs5512" /><sodipodi:namedview
     pagecolor="#ffffff"
     bordercolor="#666666"
     borderopacity="1"
     objecttolerance="10"
     gridtolerance="10"
     guidetolerance="10"
     inkscape:pageopacity="0"
     inkscape:pageshadow="2"
     inkscape:window-width="2560"
     inkscape:window-height="1361"
     id="namedview5510"
     showgrid="false"
     inkscape:zoom="27.812867"
     inkscape:cx="23.524907"
     inkscape:cy="18.673474"
     inkscape:window-x="2551"
     inkscape:window-y="-9"
     inkscape:window-maximized="1"
     inkscape:current-layer="svg5508" /><g
     id="Layer_275"><g
       id="g5504"><rect
         style="fill:#0173B2;"
         width="48"
         height="48"
         id="rect5494" /><g
         id="g5502"><rect
           x="9.018"
           y="19.035"
           style="fill:#FFFFFF;"
           width="7"
           height="20"
           id="rect5496" /><circle
           style="fill:#FFFFFF;"
           cx="12.518"
           cy="12.535"
           r="3.5"
           id="circle5498" /><path
           style="fill:#FFFFFF;"
           d="M39.018,28.044c0-5.397-1.164-9.009-7.455-9.009c-3.023,0-5.053,1.123-5.883,2.699h-0.086v-2.699     h-5.576v20h5.828v-9.913c0-2.614,0.494-5.145,3.728-5.145c3.186,0,3.443,2.989,3.443,5.314v9.745h6V28.044z"
           id="path5500" /></g></g></g><g
     id="Layer_1" /><path
     style="fill:#4d4d4d;fill-opacity:1;stroke-width:0.03595458"
     d="M 0.01060983,24.008843 V 0.00915982 H 24.010293 48.009977 V 24.008843 48.008527 H 24.010293 0.01060983 Z M 16.010399,29.024508 V 19.029134 H 12.522804 9.03521 v 9.995374 9.995373 h 3.487594 3.487595 z m 9.861215,4.359493 c 0.0108,-5.157515 0.01713,-5.668851 0.07464,-6.024316 0.261732,-1.617924 0.803008,-2.50407 1.839275,-3.011155 0.5742,-0.280978 0.864695,-0.337292 1.743797,-0.338047 0.650165,-5.57e-4 0.77125,0.0087 1.026977,0.07881 0.572516,0.156889 0.962417,0.383338 1.333264,0.774342 0.643465,0.67844 0.977462,1.661157 1.090333,3.208074 0.02251,0.30852 0.03678,2.524872 0.03687,5.725767 l 1.46e-4,5.222403 h 3.002208 3.002207 l -3.59e-4,-5.833631 c -3.6e-4,-5.790395 -0.01507,-6.684336 -0.127337,-7.719888 -0.393339,-3.628321 -1.811025,-5.477648 -4.726172,-6.165184 -1.12836,-0.266123 -2.763212,-0.339992 -3.983705,-0.179999 -1.19809,0.157056 -2.253466,0.526059 -3.090303,1.080497 -0.408282,0.270504 -0.986583,0.846638 -1.23204,1.227426 -0.105163,0.163144 -0.204494,0.296625 -0.220737,0.296625 -0.01624,0 -0.03377,-0.602688 -0.03896,-1.339308 l -0.0094,-1.339308 h -2.78648 -2.78648 l -0.0091,9.986385 -0.0091,9.986385 h 2.929292 2.929293 z M 12.936282,16.005211 c 1.524399,-0.186032 2.733796,-1.330633 3.02285,-2.860893 0.04528,-0.23974 0.05494,-0.427261 0.03946,-0.766782 -0.02827,-0.62025 -0.164721,-1.097773 -0.45624,-1.596636 C 14.436955,8.8892808 11.909439,8.4610096 10.24185,9.8827638 9.7012499,10.343669 9.3218144,10.956364 9.116074,11.700616 c -0.049305,0.178357 -0.062442,0.363378 -0.060827,0.856693 0.0019,0.580674 0.00967,0.653993 0.1006804,0.95058 0.1303483,0.424769 0.3657027,0.872292 0.6412122,1.219255 0.4921564,0.619798 1.3322704,1.121528 2.0816374,1.243189 0.50221,0.08153 0.638383,0.08603 1.057505,0.03488 z"
     id="path5516"
     inkscape:connector-curvature="0" /></svg>