<?xml version="1.0" encoding="UTF-8" standalone="no"?>
<!-- Generator: Adobe Illustrator 18.0.0, SVG Export Plug-In . SVG Version: 6.00 Build 0)  -->

<svg
   xmlns:dc="http://purl.org/dc/elements/1.1/"
   xmlns:cc="http://creativecommons.org/ns#"
   xmlns:rdf="http://www.w3.org/1999/02/22-rdf-syntax-ns#"
   xmlns:svg="http://www.w3.org/2000/svg"
   xmlns="http://www.w3.org/2000/svg"
   xmlns:sodipodi="http://sodipodi.sourceforge.net/DTD/sodipodi-0.dtd"
   xmlns:inkscape="http://www.inkscape.org/namespaces/inkscape"
   version="1.1"
   x="0px"
   y="0px"
   viewBox="0 0 48 48"
   style="enable-background:new 0 0 48 48;"
   xml:space="preserve"
   id="svg5460"
   sodipodi:docname="skypeg.svg"
   inkscape:version="0.92.2 (5c3e80d, 2017-08-06)"><metadata
     id="metadata5466"><rdf:RDF><cc:Work
         rdf:about=""><dc:format>image/svg+xml</dc:format><dc:type
           rdf:resource="http://purl.org/dc/dcmitype/StillImage" /><dc:title></dc:title></cc:Work></rdf:RDF></metadata><defs
     id="defs5464" /><sodipodi:namedview
     pagecolor="#ffffff"
     bordercolor="#666666"
     borderopacity="1"
     objecttolerance="10"
     gridtolerance="10"
     guidetolerance="10"
     inkscape:pageopacity="0"
     inkscape:pageshadow="2"
     inkscape:window-width="2560"
     inkscape:window-height="1361"
     id="namedview5462"
     showgrid="false"
     inkscape:zoom="27.812867"
     inkscape:cx="29.694565"
     inkscape:cy="21.256429"
     inkscape:window-x="2551"
     inkscape:window-y="-9"
     inkscape:window-maximized="1"
     inkscape:current-layer="svg5460" /><g
     id="Layer_282"><g
       id="g5456"><rect
         style="fill:#00AAF1;"
         width="48"
         height="48"
         id="rect5450" /><g
         id="g5454"><path
           style="fill:#FFFFFF;"
           d="M38.485,24.192c0-7.79-6.406-14.106-14.309-14.106c-0.834,0-1.65,0.071-2.446,0.206     c-1.28-0.795-2.791-1.257-4.414-1.257c-4.584,0-8.298,3.664-8.298,8.184c0,1.51,0.416,2.923,1.139,4.138     c-0.19,0.916-0.289,1.865-0.289,2.836c0,7.793,6.406,14.108,14.309,14.108c0.895,0,1.771-0.081,2.619-0.235     c1.171,0.618,2.506,0.97,3.924,0.97c4.584,0,8.298-3.662,8.298-8.182c0-1.305-0.311-2.537-0.862-3.633     C38.372,26.243,38.485,25.232,38.485,24.192z M31.516,30.935c-0.662,0.923-1.64,1.655-2.908,2.175     c-1.254,0.514-2.758,0.775-4.469,0.775c-2.056,0-3.78-0.357-5.125-1.06c-0.961-0.512-1.755-1.204-2.357-2.062     c-0.606-0.862-0.915-1.721-0.915-2.549c0-0.517,0.202-0.965,0.598-1.331c0.39-0.364,0.893-0.548,1.494-0.548     c0.491,0,0.915,0.145,1.26,0.431c0.329,0.276,0.612,0.684,0.838,1.21c0.255,0.574,0.531,1.057,0.822,1.436     c0.281,0.367,0.685,0.675,1.2,0.915c0.519,0.242,1.218,0.366,2.078,0.366c1.183,0,2.153-0.249,2.882-0.741     c0.713-0.478,1.058-1.055,1.058-1.76c0-0.557-0.178-0.994-0.551-1.338c-0.39-0.359-0.905-0.637-1.527-0.831     c-0.65-0.199-1.533-0.416-2.625-0.642c-1.486-0.312-2.748-0.685-3.75-1.104c-1.026-0.432-1.854-1.028-2.458-1.774     c-0.614-0.76-0.927-1.709-0.927-2.828c0-1.065,0.327-2.027,0.973-2.854c0.638-0.822,1.575-1.464,2.777-1.9     c1.189-0.433,2.601-0.653,4.2-0.653c1.278,0,2.399,0.147,3.338,0.434c0.943,0.289,1.737,0.681,2.363,1.162     c0.63,0.484,1.099,1.002,1.391,1.541c0.297,0.544,0.448,1.085,0.448,1.608c0,0.505-0.198,0.963-0.586,1.363     c-0.392,0.401-0.887,0.604-1.47,0.604c-0.531,0-0.945-0.128-1.232-0.377c-0.267-0.235-0.547-0.6-0.854-1.123     c-0.359-0.667-0.79-1.194-1.284-1.566c-0.483-0.361-1.286-0.543-2.391-0.543c-1.024,0-1.86,0.203-2.478,0.604     c-0.596,0.386-0.887,0.827-0.887,1.352c0,0.322,0.093,0.59,0.287,0.821c0.202,0.246,0.489,0.459,0.852,0.64     c0.376,0.185,0.765,0.334,1.151,0.439c0.398,0.109,1.066,0.271,1.981,0.479c1.157,0.246,2.223,0.519,3.162,0.817     c0.955,0.302,1.777,0.67,2.448,1.103c0.687,0.439,1.228,1.003,1.615,1.679c0.386,0.677,0.582,1.514,0.582,2.485     C32.518,28.949,32.18,30.009,31.516,30.935z"
           id="path5452" /></g></g></g><g
     id="Layer_1" /><path
     style="fill:#4d4d4d;fill-opacity:1;stroke-width:0.03595458"
     d="M -0.00391986,23.996641 V -0.02102028 H 23.995764 47.995447 V 23.996641 48.014301 H 23.995764 -0.00391986 Z M 31.533428,38.989033 c 4.34891,-0.427741 7.614704,-4.109305 7.462346,-8.412383 -0.03904,-1.102526 -0.25166,-2.033789 -0.69077,-3.02549 l -0.15345,-0.346552 0.06928,-0.336585 c 0.180043,-0.874752 0.226676,-1.424772 0.226676,-2.673632 0,-1.026934 -0.01077,-1.265572 -0.08009,-1.774447 -0.35504,-2.606519 -1.355308,-4.950428 -2.978941,-6.980494 -0.471047,-0.588962 -1.500916,-1.630807 -2.056122,-2.080034 -2.249135,-1.819814 -4.771531,-2.86883 -7.678086,-3.193167 -0.981693,-0.109545 -2.596315,-0.07336 -3.575807,0.08015 l -0.335296,0.05255 -0.356142,-0.199888 C 20.506266,9.60472 19.457864,9.2573066 18.386849,9.1048736 c -0.48327,-0.068782 -1.740169,-0.058423 -2.247161,0.018519 -1.784641,0.2708419 -3.357142,1.0384714 -4.615699,2.2531894 -1.316328,1.270478 -2.1306848,2.856273 -2.4187626,4.710051 -0.078982,0.508246 -0.088553,1.691776 -0.017591,2.175252 0.1353694,0.922294 0.396382,1.761943 0.7964246,2.56201 l 0.274283,0.548554 -0.06594,0.368288 c -0.1866059,1.042233 -0.2599029,2.508133 -0.1760694,3.521295 0.3171834,3.833303 2.0862734,7.238689 5.0455524,9.712368 2.168874,1.812975 4.844493,2.932867 7.757489,3.246934 1.078488,0.116277 2.763351,0.06539 3.785612,-0.114346 l 0.283532,-0.04985 0.239556,0.119945 c 0.796152,0.398632 1.882301,0.708628 2.836001,0.809424 0.4098,0.04331 1.241893,0.04457 1.669351,0.0025 z"
     id="path5468"
     inkscape:connector-curvature="0" /><path
     style="fill:#4d4d4d;fill-opacity:1;stroke-width:0.03595458"
     d="m 22.869056,33.845885 c -2.874586,-0.253897 -4.919103,-1.262389 -6.197407,-3.056975 -0.877397,-1.23176 -1.164135,-2.597719 -0.71954,-3.427743 0.24259,-0.452895 0.807163,-0.858137 1.356102,-0.973388 0.726056,-0.152438 1.391078,0.01332 1.883854,0.469538 0.287639,0.266303 0.479617,0.562295 0.803049,1.238146 0.146684,0.306513 0.361255,0.709775 0.476825,0.896137 0.761102,1.227318 1.956025,1.752086 3.829439,1.681756 0.917922,-0.03446 1.607219,-0.193824 2.23643,-0.517059 1.109589,-0.570013 1.5878,-1.404295 1.37656,-2.401532 C 27.780405,27.12234 27.35643,26.6742 26.516993,26.27774 c -0.533546,-0.251989 -1.501587,-0.519101 -3.186389,-0.879222 -2.322162,-0.496355 -3.951258,-1.061503 -4.943755,-1.715035 -1.526246,-1.00499 -2.24648,-2.278075 -2.247017,-3.971825 -3.05e-4,-0.962445 0.210101,-1.731066 0.677291,-2.474165 0.693996,-1.103849 1.800966,-1.90289 3.3315,-2.404768 1.216328,-0.398846 2.320151,-0.556572 3.901073,-0.557428 0.985544,-5.34e-4 1.459866,0.03385 2.229184,0.161584 1.55107,0.257537 2.879511,0.850463 3.874213,1.729186 0.880552,0.777882 1.382094,1.685064 1.466794,2.653114 0.05144,0.587897 -0.142648,1.095888 -0.589736,1.543544 -0.439831,0.44039 -0.856188,0.612128 -1.486623,0.613199 -0.929948,0.0016 -1.410473,-0.358015 -2.113313,-1.58147 -0.454969,-0.791979 -0.994086,-1.372157 -1.526348,-1.642599 -0.796651,-0.404779 -2.515606,-0.494612 -3.615946,-0.188971 -0.790013,0.219442 -1.460229,0.694243 -1.716453,1.215986 -0.08864,0.180493 -0.09913,0.240557 -0.0981,0.561652 10e-4,0.32194 0.01161,0.379628 0.101124,0.551551 0.206087,0.395804 0.605591,0.716335 1.240347,0.995161 0.606274,0.266314 1.145968,0.411478 3.673042,0.98795 2.848667,0.649833 4.559616,1.367128 5.592027,2.344391 0.74172,0.702099 1.190423,1.542876 1.368105,2.563546 0.08522,0.489548 0.08668,1.457043 0.0029,1.92357 -0.30101,1.676077 -1.275714,3.012232 -2.864203,3.926337 -1.047041,0.602526 -2.253757,0.979309 -3.726149,1.163446 -0.547055,0.06841 -2.42513,0.09943 -2.991496,0.04941 z"
     id="path5470"
     inkscape:connector-curvature="0" /></svg>