<?xml version="1.0" encoding="iso-8859-1"?>
<!-- Generator: Adobe Illustrator 18.0.0, SVG Export Plug-In . SVG Version: 6.00 Build 0)  -->
<!DOCTYPE svg PUBLIC "-//W3C//DTD SVG 1.1//EN" "http://www.w3.org/Graphics/SVG/1.1/DTD/svg11.dtd">
<svg version="1.1" xmlns="http://www.w3.org/2000/svg" xmlns:xlink="http://www.w3.org/1999/xlink" x="0px" y="0px"
	 viewBox="0 0 48 48" style="enable-background:new 0 0 48 48;" xml:space="preserve">
<g id="Layer_282">
	<g>
		<rect style="fill:#00AAF1;" width="48" height="48"/>
		<g>
			<path style="fill:#FFFFFF;" d="M38.485,24.192c0-7.79-6.406-14.106-14.309-14.106c-0.834,0-1.65,0.071-2.446,0.206
				c-1.28-0.795-2.791-1.257-4.414-1.257c-4.584,0-8.298,3.664-8.298,8.184c0,1.51,0.416,2.923,1.139,4.138
				c-0.19,0.916-0.289,1.865-0.289,2.836c0,7.793,6.406,14.108,14.309,14.108c0.895,0,1.771-0.081,2.619-0.235
				c1.171,0.618,2.506,0.97,3.924,0.97c4.584,0,8.298-3.662,8.298-8.182c0-1.305-0.311-2.537-0.862-3.633
				C38.372,26.243,38.485,25.232,38.485,24.192z M31.516,30.935c-0.662,0.923-1.64,1.655-2.908,2.175
				c-1.254,0.514-2.758,0.775-4.469,0.775c-2.056,0-3.78-0.357-5.125-1.06c-0.961-0.512-1.755-1.204-2.357-2.062
				c-0.606-0.862-0.915-1.721-0.915-2.549c0-0.517,0.202-0.965,0.598-1.331c0.39-0.364,0.893-0.548,1.494-0.548
				c0.491,0,0.915,0.145,1.26,0.431c0.329,0.276,0.612,0.684,0.838,1.21c0.255,0.574,0.531,1.057,0.822,1.436
				c0.281,0.367,0.685,0.675,1.2,0.915c0.519,0.242,1.218,0.366,2.078,0.366c1.183,0,2.153-0.249,2.882-0.741
				c0.713-0.478,1.058-1.055,1.058-1.76c0-0.557-0.178-0.994-0.551-1.338c-0.39-0.359-0.905-0.637-1.527-0.831
				c-0.65-0.199-1.533-0.416-2.625-0.642c-1.486-0.312-2.748-0.685-3.75-1.104c-1.026-0.432-1.854-1.028-2.458-1.774
				c-0.614-0.76-0.927-1.709-0.927-2.828c0-1.065,0.327-2.027,0.973-2.854c0.638-0.822,1.575-1.464,2.777-1.9
				c1.189-0.433,2.601-0.653,4.2-0.653c1.278,0,2.399,0.147,3.338,0.434c0.943,0.289,1.737,0.681,2.363,1.162
				c0.63,0.484,1.099,1.002,1.391,1.541c0.297,0.544,0.448,1.085,0.448,1.608c0,0.505-0.198,0.963-0.586,1.363
				c-0.392,0.401-0.887,0.604-1.47,0.604c-0.531,0-0.945-0.128-1.232-0.377c-0.267-0.235-0.547-0.6-0.854-1.123
				c-0.359-0.667-0.79-1.194-1.284-1.566c-0.483-0.361-1.286-0.543-2.391-0.543c-1.024,0-1.86,0.203-2.478,0.604
				c-0.596,0.386-0.887,0.827-0.887,1.352c0,0.322,0.093,0.59,0.287,0.821c0.202,0.246,0.489,0.459,0.852,0.64
				c0.376,0.185,0.765,0.334,1.151,0.439c0.398,0.109,1.066,0.271,1.981,0.479c1.157,0.246,2.223,0.519,3.162,0.817
				c0.955,0.302,1.777,0.67,2.448,1.103c0.687,0.439,1.228,1.003,1.615,1.679c0.386,0.677,0.582,1.514,0.582,2.485
				C32.518,28.949,32.18,30.009,31.516,30.935z"/>
		</g>
	</g>
</g>
<g id="Layer_1">
</g>
</svg>
