<?xml version="1.0" encoding="UTF-8" standalone="no"?>
<!-- Generator: Adobe Illustrator 18.0.0, SVG Export Plug-In . SVG Version: 6.00 Build 0)  -->

<svg
   xmlns:dc="http://purl.org/dc/elements/1.1/"
   xmlns:cc="http://creativecommons.org/ns#"
   xmlns:rdf="http://www.w3.org/1999/02/22-rdf-syntax-ns#"
   xmlns:svg="http://www.w3.org/2000/svg"
   xmlns="http://www.w3.org/2000/svg"
   xmlns:sodipodi="http://sodipodi.sourceforge.net/DTD/sodipodi-0.dtd"
   xmlns:inkscape="http://www.inkscape.org/namespaces/inkscape"
   version="1.1"
   x="0px"
   y="0px"
   viewBox="0 0 48 48"
   style="enable-background:new 0 0 48 48;"
   xml:space="preserve"
   id="svg5948"
   sodipodi:docname="snapchatg.svg"
   inkscape:version="0.92.2 (5c3e80d, 2017-08-06)"><metadata
     id="metadata5954"><rdf:RDF><cc:Work
         rdf:about=""><dc:format>image/svg+xml</dc:format><dc:type
           rdf:resource="http://purl.org/dc/dcmitype/StillImage" /><dc:title></dc:title></cc:Work></rdf:RDF></metadata><defs
     id="defs5952" /><sodipodi:namedview
     pagecolor="#ffffff"
     bordercolor="#666666"
     borderopacity="1"
     objecttolerance="10"
     gridtolerance="10"
     guidetolerance="10"
     inkscape:pageopacity="0"
     inkscape:pageshadow="2"
     inkscape:window-width="2560"
     inkscape:window-height="1361"
     id="namedview5950"
     showgrid="false"
     inkscape:zoom="13.906433"
     inkscape:cx="30.604722"
     inkscape:cy="19.645638"
     inkscape:window-x="2551"
     inkscape:window-y="-9"
     inkscape:window-maximized="1"
     inkscape:current-layer="svg5948" /><g
     id="nyt_x5F_exporter_x5F_info"
     style="display:none;" /><g
     id="g5763" /><g
     id="g5765" /><g
     id="g5767" /><g
     id="g5769" /><g
     id="g5771" /><g
     id="g5773" /><g
     id="g5775" /><g
     id="g5777" /><g
     id="g5779" /><g
     id="g5781" /><g
     id="g5783" /><g
     id="g5785" /><g
     id="g5787" /><g
     id="g5789" /><g
     id="g5791" /><g
     id="g5793" /><g
     id="g5795" /><g
     id="g5797" /><g
     id="g5799" /><g
     id="g5801" /><g
     id="g5803" /><g
     id="g5805" /><g
     id="g5807" /><g
     id="g5809" /><g
     id="g5811" /><g
     id="g5813" /><g
     id="g5815" /><g
     id="g5817" /><g
     id="g5819" /><g
     id="g5821" /><g
     id="g5823" /><g
     id="g5825" /><g
     id="g5827" /><g
     id="g5829" /><g
     id="g5831" /><g
     id="g5833" /><g
     id="g5835" /><g
     id="g5837" /><g
     id="g5839" /><g
     id="g5841" /><g
     id="g5843" /><g
     id="g5845" /><g
     id="g5847" /><g
     id="g5849" /><g
     id="g5851" /><g
     id="g5853" /><g
     id="g5855" /><g
     id="g5857" /><g
     id="g5859" /><g
     id="g5861" /><g
     id="g5863" /><g
     id="g5865" /><g
     id="g5867" /><g
     id="g5869" /><g
     id="g5871" /><g
     id="g5873" /><g
     id="g5875" /><g
     id="g5877" /><g
     id="g5879" /><g
     id="g5881" /><g
     id="g5883" /><g
     id="g5885" /><g
     id="g5887" /><g
     id="g5889" /><g
     id="g5891" /><g
     id="g5893" /><g
     id="g5895" /><g
     id="g5897" /><g
     id="g5899" /><g
     id="g5901" /><g
     id="g5903" /><g
     id="g5905" /><g
     id="g5912"><g
       id="g5910"><rect
         style="fill:#F0E200;"
         width="48"
         height="48"
         id="rect5907" /><path
         id="path12604_8_"
         style="fill:#FFFFFF;"
         d="M23.558,9.915c-1.816,0.012-3.694,0.489-5.166,1.641    c-1.103,0.861-1.97,2.002-2.516,3.277c-0.001,0.003-0.002,0.006-0.002,0.009c-0.521,1.313-0.472,2.711-0.402,4.006v0.002    c0.043,0.91,0.144,1.792,0.059,2.628c-0.007,0.033-0.007,0.041-0.012,0.06c-0.409,0.073-0.855,0.047-1.297-0.037    c-0.002,0-0.005,0-0.007,0c-0.303-0.052-0.626-0.175-0.991-0.276c-0.006-0.002-0.012-0.003-0.019-0.005    c-0.355-0.08-0.703,0.022-0.97,0.218c-0.003,0.002-0.008,0.005-0.012,0.007c-0.005,0.004-0.011,0.008-0.016,0.012    c-0.217,0.142-0.515,0.382-0.531,0.797c-0.001,0.027,0.002,0.055,0.007,0.081c0.047,0.244,0.199,0.423,0.334,0.539    c0.135,0.117,0.262,0.193,0.341,0.253c0.006,0.005,0.012,0.01,0.019,0.014c0.661,0.441,1.393,0.635,2.03,0.881    c0.001,0,0.002,0,0.002,0c0.441,0.193,0.824,0.493,0.911,0.871c0.11,0.478-0.094,1.027-0.359,1.559v0.002    c-0.717,1.412-1.781,2.64-3.089,3.539c-0.686,0.468-1.46,0.818-2.267,1.034c-0.011,0.003-0.022,0.007-0.033,0.012    c-0.166,0.062-0.558,0.102-0.806,0.474c-0.018,0.026-0.032,0.054-0.042,0.084c-0.083,0.239,0.012,0.496,0.129,0.637    c0.112,0.134,0.237,0.212,0.345,0.27c0.006,0.003,0.011,0.006,0.017,0.009c0.68,0.389,1.422,0.557,2.1,0.73    c0.003,0.001,0.006,0.002,0.009,0.002c0.488,0.11,0.939,0.169,1.306,0.325c0.018,0.03,0.055,0.153,0.141,0.358    c0.12,0.372,0.175,0.811,0.315,1.271c0.038,0.127,0.151,0.23,0.282,0.258c0.309,0.065,0.478-0.04,0.505-0.042    c0.013-0.001,0.025-0.002,0.038-0.005c1.135-0.197,2.268-0.371,3.308-0.112c0,0,0.001,0,0.002,0    c1.091,0.284,2.04,1.035,3.108,1.68c0.002,0.001,0.003,0.003,0.005,0.005v-0.002c0.709,0.445,1.529,0.881,2.476,0.913v0.002    c0.003,0,0.006,0,0.009,0c0.715,0.04,1.417-0.005,2.103-0.051c0.004,0,0.008,0,0.012,0c0.587-0.057,1.156-0.251,1.654-0.567    c0.007-0.004,0.014-0.008,0.021-0.012c1.124-0.637,2.122-1.404,3.216-1.885c0.002-0.001,0.003-0.002,0.005-0.002    c0.355-0.127,0.798-0.12,1.292-0.153c0.005,0,0.009,0,0.014,0c0.906-0.028,1.814,0.02,2.713,0.139    c0.031,0.004,0.063,0.004,0.094,0c0.118-0.014,0.247-0.092,0.31-0.172c0.063-0.08,0.081-0.144,0.094-0.191    c0.026-0.092,0.05-0.136,0.007-0.06c0.014-0.023,0.025-0.049,0.033-0.074c0.165-0.541,0.255-1.031,0.521-1.336    c0.12-0.116,0.326-0.174,0.559-0.17c0.017,0,0.035,0,0.052-0.002c0.782-0.092,1.489-0.371,2.159-0.609    c0.008-0.003,0.016-0.006,0.023-0.009c0.249-0.107,0.62-0.23,0.874-0.583c0.001-0.002,0.003-0.003,0.005-0.005l-0.002-0.002    c0.214-0.295,0.115-0.701-0.188-0.885l0.005-0.005c-0.009-0.007-0.019-0.01-0.028-0.016c-0.003-0.001-0.005-0.003-0.007-0.005    v0.002c-0.363-0.231-0.726-0.263-0.956-0.346c-0.005-0.002-0.009-0.003-0.014-0.005c-1.555-0.493-2.9-1.556-3.905-2.849    c-0.558-0.721-1.029-1.504-1.341-2.34c-0.001-0.003-0.001-0.006-0.002-0.009c-0.122-0.363-0.128-0.759,0.052-0.999    c0.002-0.002,0.005-0.005,0.007-0.007c0.281-0.399,0.796-0.656,1.346-0.858c0.002-0.001,0.005-0.002,0.007-0.002    c0.608-0.209,1.272-0.453,1.821-0.934c0.002-0.002,0.005-0.005,0.007-0.007c0.085-0.079,0.187-0.183,0.263-0.337    c0.076-0.154,0.113-0.395,0.012-0.604v-0.002c-0.158-0.322-0.434-0.488-0.639-0.609c0,0-0.002,0-0.002,0    c-0.343-0.198-0.743-0.211-1.09-0.1c-0.001,0-0.002,0-0.002,0c-0.003,0.001-0.006,0.002-0.008,0.003    c-0.375,0.113-0.681,0.248-0.965,0.283c-0.006,0.001-0.013,0.003-0.019,0.005c-0.404,0.071-0.795,0.088-1.099-0.023    c-0.003-0.045-0.004-0.133-0.016-0.242h0.002c-0.022-0.663,0.034-1.346,0.045-2.054v-0.005c0.031-1.076,0.075-2.183-0.085-3.298    c-0.001-0.005-0.001-0.011-0.002-0.016c-0.347-1.88-1.555-3.5-3.087-4.578c-1.113-0.782-2.435-1.218-3.778-1.341    c-0.001,0-0.002,0-0.002,0C24.456,9.926,24.006,9.91,23.558,9.915L23.558,9.915z" /></g></g><g
     id="g5914" /><g
     id="g5916" /><g
     id="g5918" /><g
     id="g5920" /><g
     id="g5922" /><g
     id="g5924" /><g
     id="g5926" /><g
     id="g5928" /><g
     id="g5930" /><g
     id="g5932" /><g
     id="g5934" /><g
     id="g5936" /><g
     id="g5938" /><g
     id="g5940" /><g
     id="g5942" /><g
     id="g5944" /><g
     id="g5946" /><path
     style="fill:#4d4d4d;fill-opacity:1;stroke-width:0.07190917"
     d="M -0.02858228,24.011048 V -0.00661243 H 23.989079 48.006739 V 24.011048 48.028709 H 23.989079 -0.02858228 Z M 24.869061,37.816347 c 0.877369,-0.100528 1.215689,-0.246854 2.741091,-1.185543 0.736584,-0.453272 1.574165,-0.945266 1.861292,-1.09332 l 0.52205,-0.269188 1.373724,-0.02616 c 0.755549,-0.01439 1.645425,0.0077 1.977502,0.04919 0.787721,0.09831 0.888598,0.03331 1.105054,-0.712102 0.315065,-1.084994 0.366642,-1.135308 1.325644,-1.293193 0.591965,-0.09746 1.742906,-0.466017 2.227052,-0.713157 0.420131,-0.214462 0.656078,-0.480213 0.656078,-0.738952 0,-0.449375 -0.16915,-0.575475 -1.241864,-0.925793 -1.223383,-0.399523 -2.258884,-1.059776 -3.222999,-2.055037 -0.889391,-0.918124 -1.57511,-1.936596 -1.961106,-2.912759 -0.441865,-1.117451 -0.125734,-1.570026 1.546896,-2.21454 1.720161,-0.66283 2.29656,-1.367342 1.663837,-2.033646 -0.469643,-0.49457 -1.039678,-0.601116 -1.789171,-0.334416 -0.268248,0.09545 -0.683846,0.165269 -1.128009,0.189491 l -0.703275,0.03835 0.01432,-2.616426 c 0.0124,-2.265722 -0.0026,-2.693533 -0.112048,-3.191698 -0.465779,-2.120381 -1.930948,-3.957994 -3.957863,-4.963946 -2.643855,-1.3121362 -6.488229,-1.1380484 -8.845111,0.40054 -1.456962,0.951115 -2.785457,2.679927 -3.194974,4.157716 -0.264457,0.954327 -0.316146,1.817424 -0.222392,3.713512 0.04693,0.949201 0.074,1.887615 0.06015,2.085365 l -0.02519,0.359546 -0.563721,0.02112 c -0.408634,0.01531 -0.725163,-0.02234 -1.150546,-0.136833 -0.873088,-0.235002 -1.009806,-0.242213 -1.361781,-0.07182 -0.655719,0.317428 -0.914722,0.832202 -0.639615,1.271253 0.212609,0.339311 0.891742,0.746148 1.875795,1.123702 1.423093,0.546003 1.718318,0.839096 1.637169,1.625352 -0.07328,0.710031 -0.8312,2.069243 -1.725458,3.094348 -1.061554,1.216879 -2.326733,2.053984 -3.8414254,2.541678 -0.3933812,0.126659 -0.7649021,0.295067 -0.8593907,0.389555 -0.1968859,0.196886 -0.2212811,0.566052 -0.053258,0.805939 0.2548101,0.363792 1.3311181,0.770915 3.0729041,1.162352 0.808123,0.181613 0.744469,0.106138 1.019067,1.208332 0.09134,0.366627 0.20897,0.71828 0.261398,0.781453 0.10518,0.126734 0.268691,0.118217 1.501906,-0.07823 0.866647,-0.138056 1.849705,-0.139409 2.426815,-0.0033 0.570496,0.134511 1.308667,0.506031 2.53747,1.277106 1.384717,0.868911 2.112644,1.210286 2.765951,1.297148 0.446645,0.05938 1.820955,0.04639 2.426029,-0.02294 z"
     id="path5956"
     inkscape:connector-curvature="0" /></svg>