<?xml version="1.0" encoding="UTF-8" standalone="no"?>
<!-- Generator: Adobe Illustrator 18.0.0, SVG Export Plug-In . SVG Version: 6.00 Build 0)  -->

<svg
   xmlns:dc="http://purl.org/dc/elements/1.1/"
   xmlns:cc="http://creativecommons.org/ns#"
   xmlns:rdf="http://www.w3.org/1999/02/22-rdf-syntax-ns#"
   xmlns:svg="http://www.w3.org/2000/svg"
   xmlns="http://www.w3.org/2000/svg"
   xmlns:sodipodi="http://sodipodi.sourceforge.net/DTD/sodipodi-0.dtd"
   xmlns:inkscape="http://www.inkscape.org/namespaces/inkscape"
   version="1.1"
   x="0px"
   y="0px"
   viewBox="0 0 48 48"
   style="enable-background:new 0 0 48 48;"
   xml:space="preserve"
   id="svg5422"
   sodipodi:docname="twitterg.svg"
   inkscape:version="0.92.2 (5c3e80d, 2017-08-06)"><metadata
     id="metadata5428"><rdf:RDF><cc:Work
         rdf:about=""><dc:format>image/svg+xml</dc:format><dc:type
           rdf:resource="http://purl.org/dc/dcmitype/StillImage" /><dc:title></dc:title></cc:Work></rdf:RDF></metadata><defs
     id="defs5426" /><sodipodi:namedview
     pagecolor="#ffffff"
     bordercolor="#666666"
     borderopacity="1"
     objecttolerance="10"
     gridtolerance="10"
     guidetolerance="10"
     inkscape:pageopacity="0"
     inkscape:pageshadow="2"
     inkscape:window-width="2560"
     inkscape:window-height="1361"
     id="namedview5424"
     showgrid="false"
     inkscape:zoom="13.906433"
     inkscape:cx="23.736613"
     inkscape:cy="17.296647"
     inkscape:window-x="2551"
     inkscape:window-y="-9"
     inkscape:window-maximized="1"
     inkscape:current-layer="svg5422" /><g
     id="Layer_276"><g
       id="g5418"><rect
         style="fill:#2A445F;"
         width="48"
         height="48"
         id="rect5412" /><g
         id="g5416"><path
           style="fill:#FFFFFF;"
           d="M19.325,34.99c0.274,0.722,0.765,1.403,1.48,2.045c0.709,0.637,1.568,1.133,2.575,1.481     c1.006,0.344,1.779,0.519,3.091,0.519c1.153,0,2.226-0.124,3.219-0.366c0.995-0.242,2.105-0.667,3.327-1.27v-4.729     c-1.435,0.987-2.88,1.48-4.33,1.48c-0.817,0-1.54-0.2-2.176-0.599c-0.478-0.294-0.918-0.804-1.092-1.294     c-0.175-0.492-0.155-1.496-0.155-3.236v-7.692h6.627v-5.356h-6.627V9.035H21.19c-0.183,1.546-0.519,2.822-1.006,3.822     c-0.485,1.002-1.129,1.859-1.933,2.576c-0.801,0.715-2.107,1.264-3.232,1.645v4.249h3.895v10.52     C18.913,33.219,19.049,34.267,19.325,34.99z"
           id="path5414" /></g></g></g><g
     id="Layer_1" /><path
     style="fill:#4d4d4d;fill-opacity:1;stroke-width:0.07190917"
     d="M 0.00658897,24.022992 V 0.04128547 H 23.988295 47.970002 V 24.022992 48.004698 H 23.988295 0.00658897 Z m 29.06040703,14.7876 c 1.192287,-0.245798 2.088311,-0.547429 3.379508,-1.137651 l 0.566391,-0.258904 V 35.04398 32.673923 l -0.233704,0.156383 c -0.484335,0.324091 -1.842337,0.940057 -2.393607,1.085698 -0.805324,0.212759 -2.080231,0.264994 -2.693967,0.110376 -0.993415,-0.250271 -1.781861,-0.818191 -2.157135,-1.553788 -0.249023,-0.488125 -0.283734,-1.263185 -0.285828,-6.382212 l -0.0019,-4.763982 h 3.307821 3.307822 v -2.696594 -2.696593 h -3.307822 -3.307821 v -3.45164 -3.45164 h -2.049412 -2.049411 v 0.2246701 c 0,0.3919949 -0.347538,1.9590179 -0.581745,2.6230439 -0.439905,1.247223 -0.995641,2.169032 -1.842276,3.055818 -0.817967,0.856758 -1.530981,1.305137 -2.969166,1.867163 l -0.683137,0.266961 -0.01905,2.129406 -0.01905,2.129405 h 1.939263 1.939263 l 0.02596,6.166211 c 0.02935,6.971381 0.0093,6.705527 0.597922,7.91153 0.690079,1.41378 2.290954,2.644263 4.200738,3.22882 1.102514,0.337464 1.498014,0.381698 3.128049,0.349849 1.132282,-0.02212 1.683284,-0.06521 2.202334,-0.172216 z"
     id="path5430"
     inkscape:connector-curvature="0" /></svg>