<?xml version="1.0" encoding="UTF-8" standalone="no"?>
<!-- Generator: Adobe Illustrator 18.0.0, SVG Export Plug-In . SVG Version: 6.00 Build 0)  -->

<svg
   xmlns:dc="http://purl.org/dc/elements/1.1/"
   xmlns:cc="http://creativecommons.org/ns#"
   xmlns:rdf="http://www.w3.org/1999/02/22-rdf-syntax-ns#"
   xmlns:svg="http://www.w3.org/2000/svg"
   xmlns="http://www.w3.org/2000/svg"
   xmlns:sodipodi="http://sodipodi.sourceforge.net/DTD/sodipodi-0.dtd"
   xmlns:inkscape="http://www.inkscape.org/namespaces/inkscape"
   version="1.1"
   x="0px"
   y="0px"
   viewBox="0 0 48 48"
   style="enable-background:new 0 0 48 48;"
   xml:space="preserve"
   id="svg5360"
   sodipodi:docname="utubeg.svg"
   inkscape:version="0.92.2 (5c3e80d, 2017-08-06)"><metadata
     id="metadata5366"><rdf:RDF><cc:Work
         rdf:about=""><dc:format>image/svg+xml</dc:format><dc:type
           rdf:resource="http://purl.org/dc/dcmitype/StillImage" /><dc:title></dc:title></cc:Work></rdf:RDF></metadata><defs
     id="defs5364" /><sodipodi:namedview
     pagecolor="#ffffff"
     bordercolor="#666666"
     borderopacity="1"
     objecttolerance="10"
     gridtolerance="10"
     guidetolerance="10"
     inkscape:pageopacity="0"
     inkscape:pageshadow="2"
     inkscape:window-width="2560"
     inkscape:window-height="1361"
     id="namedview5362"
     showgrid="false"
     inkscape:zoom="39.333333"
     inkscape:cx="20.874148"
     inkscape:cy="39.320456"
     inkscape:window-x="2551"
     inkscape:window-y="-9"
     inkscape:window-maximized="1"
     inkscape:current-layer="svg5360" /><g
     id="Layer_271"><g
       id="g5356"><rect
         style="fill:#E14E42;"
         width="48"
         height="48"
         id="rect5336" /><g
         id="g5354"><path
           style="fill:#FFFFFF;"
           d="M32.042,29.224c-0.24,0-0.414,0.071-0.518,0.215c-0.107,0.137-0.158,0.37-0.158,0.696v0.785h1.342     v-0.785c0-0.325-0.055-0.559-0.16-0.696C32.446,29.295,32.274,29.224,32.042,29.224z"
           id="path5338" /><g
           id="g5352"><path
             style="fill:#FFFFFF;"
             d="M26.809,29.198c-0.108,0-0.217,0.024-0.322,0.075c-0.105,0.05-0.209,0.131-0.312,0.238v4.836      c0.123,0.125,0.242,0.221,0.359,0.277c0.117,0.053,0.238,0.083,0.367,0.083c0.186,0,0.322-0.055,0.41-0.166      c0.086-0.11,0.131-0.287,0.131-0.535v-4.008c0-0.264-0.053-0.461-0.158-0.597C27.172,29.266,27.014,29.198,26.809,29.198z"
             id="path5340" /><g
             id="g5350"><path
               style="fill:#FFFFFF;"
               d="M33.538,23.035H14.499c-3.027,0-5.48,2.8-5.48,5.894v4.503c0,3.094,2.453,5.603,5.48,5.603       h19.039c3.027,0,5.48-2.509,5.48-5.603v-4.503C39.018,25.835,36.565,23.035,33.538,23.035z M18.499,26.83h-1.769v8.992h-1.711       V26.83h-1.767v-1.53h5.248V26.83z M23.499,35.822h-1.518v-0.851c-0.281,0.314-0.57,0.555-0.875,0.717       c-0.303,0.169-0.596,0.249-0.883,0.249c-0.351,0-0.613-0.115-0.791-0.347c-0.176-0.232-0.268-0.575-0.268-1.04v-6.49h1.518       v5.955c0,0.184,0.033,0.315,0.094,0.397c0.066,0.085,0.17,0.124,0.312,0.124c0.109,0,0.252-0.054,0.424-0.163       c0.17-0.11,0.328-0.249,0.469-0.417v-5.897h1.518V35.822z M29.006,34.219c0,0.548-0.119,0.97-0.357,1.264       c-0.236,0.294-0.582,0.438-1.031,0.438c-0.299,0-0.562-0.055-0.795-0.169c-0.23-0.112-0.449-0.286-0.648-0.525v0.594h-1.533       V25.301h1.533v3.389c0.207-0.236,0.424-0.416,0.65-0.538c0.232-0.126,0.465-0.186,0.701-0.186c0.48,0,0.848,0.164,1.1,0.495       c0.254,0.331,0.381,0.815,0.381,1.451V34.219z M34.268,32.128h-2.902v1.463c0,0.408,0.049,0.692,0.148,0.851       c0.1,0.159,0.271,0.236,0.516,0.236c0.252,0,0.426-0.067,0.527-0.201c0.098-0.136,0.15-0.429,0.15-0.886v-0.353h1.56v0.398       c0,0.796-0.188,1.395-0.572,1.799c-0.377,0.4-0.945,0.6-1.701,0.6c-0.682,0-1.219-0.213-1.607-0.64       c-0.389-0.423-0.586-1.011-0.586-1.759v-3.487c0-0.671,0.215-1.223,0.646-1.646c0.428-0.423,0.979-0.635,1.66-0.635       c0.695,0,1.228,0.197,1.602,0.589c0.373,0.393,0.558,0.957,0.558,1.692V32.128z"
               id="path5342" /><polygon
               style="fill:#FFFFFF;"
               points="14.702,9.035 16.991,16.036 16.991,20.627 18.915,20.627 18.915,15.818 21.155,9.035        19.198,9.035 18.008,13.669 17.887,13.669 16.637,9.035      "
               id="polygon5344" /><path
               style="fill:#FFFFFF;"
               d="M21.981,12.448c-0.457,0.392-0.687,0.918-0.687,1.583v4.432c0,0.727,0.225,1.303,0.67,1.734       c0.451,0.429,1.049,0.646,1.797,0.646c0.775,0,1.385-0.209,1.83-0.625c0.439-0.418,0.662-0.989,0.662-1.721v-4.417       c0-0.651-0.226-1.187-0.676-1.6c-0.453-0.412-1.031-0.62-1.74-0.62C23.061,11.86,22.442,12.057,21.981,12.448z M24.512,13.966       v4.66c0,0.229-0.07,0.409-0.205,0.541c-0.137,0.131-0.322,0.196-0.553,0.196c-0.227,0-0.4-0.062-0.521-0.194       c-0.121-0.129-0.182-0.309-0.182-0.543v-4.66c0-0.186,0.066-0.335,0.193-0.453c0.133-0.115,0.301-0.171,0.51-0.171       c0.226,0,0.408,0.056,0.547,0.171C24.442,13.631,24.512,13.78,24.512,13.966z"
               id="path5346" /><path
               style="fill:#FFFFFF;"
               d="M32.514,20.627v-8.55h-1.709v6.491c-0.158,0.186-0.334,0.338-0.525,0.46       c-0.195,0.12-0.353,0.18-0.478,0.18c-0.16,0-0.277-0.045-0.348-0.138c-0.07-0.09-0.109-0.236-0.109-0.437v-6.555h-1.707v7.147       c0,0.51,0.102,0.891,0.301,1.143c0.201,0.256,0.496,0.385,0.892,0.385c0.322,0,0.65-0.093,0.99-0.274       c0.344-0.183,0.672-0.449,0.984-0.798v0.946H32.514z"
               id="path5348" /></g></g></g></g></g><g
     id="Layer_1" /><path
     style="fill:#4d4d4d;fill-opacity:1;stroke-width:0.02542373"
     d="M 0.00414057,24.50777 V 1.0035329 h 24.00000043 24 V 24.50777 48.012008 h -24 H 0.00414057 Z M 34.326175,38.978136 c 1.21171,-0.207041 2.176489,-0.696372 3.015226,-1.529301 0.49548,-0.492054 0.78229,-0.891501 1.091924,-1.520751 0.27829,-0.565559 0.447246,-1.126243 0.533972,-1.772009 0.05535,-0.412149 0.05333,-5.541152 -0.0024,-5.965914 -0.05671,-0.432582 -0.126376,-0.733556 -0.269779,-1.165442 -0.626354,-1.886411 -2.14429,-3.367373 -3.920982,-3.825474 -0.64186,-0.165497 0.14881,-0.154779 -10.871735,-0.147361 -9.647538,0.0065 -10.012835,0.0084 -10.245357,0.05419 -1.149172,0.226157 -2.155919,0.789222 -2.973687,1.663159 -0.8340449,0.891331 -1.355529,1.94379 -1.583674,3.196168 -0.054511,0.299235 -0.055748,0.357486 -0.064478,3.038136 -0.00942,2.893785 -0.00465,3.051419 0.1088565,3.591971 0.5024972,2.393108 2.4718935,4.187387 4.8430845,4.412438 0.139446,0.01324 4.432147,0.02142 10.15678,0.01937 9.410476,-0.0034 9.928843,-0.0059 10.182203,-0.04917 z M 24.323401,20.796488 c 0.965578,-0.156611 1.606938,-0.708716 1.846534,-1.589565 l 0.05878,-0.216102 V 16.32133 13.651838 l -0.05848,-0.201951 c -0.299267,-1.03357 -1.28496,-1.648924 -2.532491,-1.580999 -1.163265,0.06334 -1.975856,0.605605 -2.250377,1.50175 -0.08931,0.291531 -0.102783,0.669704 -0.102428,2.87442 3.56e-4,2.21465 0.01417,2.618456 0.100797,2.945946 0.226329,0.855648 0.901855,1.449497 1.825718,1.604971 0.269755,0.0454 0.833608,0.04566 1.11194,5.14e-4 z m 4.972648,-0.113115 c 0.413947,-0.106783 0.866489,-0.378329 1.275333,-0.765258 L 30.8177,19.684999 v 0.472826 0.472827 h 0.851695 0.851695 V 16.359465 12.088279 H 31.669395 30.8177 v 3.237229 3.237228 l -0.184322,0.178603 c -0.330231,0.319986 -0.635992,0.477975 -0.890171,0.459962 -0.172167,-0.0122 -0.258766,-0.06702 -0.33478,-0.211921 -0.05231,-0.09972 -0.05263,-0.118416 -0.05931,-3.500678 l -0.0067,-3.400423 H 28.490369 27.63832 l 0.008,3.794491 c 0.0089,4.201631 -0.0027,3.912727 0.172393,4.279697 0.191695,0.40166 0.58739,0.611356 1.095966,0.580803 0.106948,-0.0064 0.278558,-0.03338 0.381356,-0.0599 z m -10.375978,-2.474332 6.77e-4,-2.42161 1.113289,-3.368644 1.11329,-3.3686439 -0.965355,-0.00666 c -0.530946,-0.00366 -0.970314,-0.0017 -0.976374,0.00436 -0.0061,0.00606 -0.276408,1.0444399 -0.600773,2.3075089 -0.584539,2.276181 -0.590337,2.296559 -0.655582,2.304227 -0.06097,0.0072 -0.06901,-0.0041 -0.108895,-0.152542 -0.02369,-0.08815 -0.303768,-1.127016 -0.622403,-2.308584 L 16.638609,9.050148 15.667144,9.043488 c -0.534305,-0.00366 -0.966266,0.00206 -0.959912,0.012712 0.0064,0.010654 0.521944,1.581402 1.145756,3.490551 l 1.134203,3.47118 v 2.306362 2.306364 h 0.966102 0.966102 l 6.76e-4,-2.421611 z"
     id="path5382"
     inkscape:connector-curvature="0" /><path
     style="fill:#4d4d4d;fill-opacity:1;stroke-width:0.02542373"
     d="m 15.02109,35.817092 c -0.0093,-0.0093 -0.01695,-2.034322 -0.01695,-4.5 V 26.834041 H 14.127022 13.249903 V 26.07133 25.308618 h 2.631356 2.631356 v 0.762712 0.762711 h -0.88983 -0.889831 v 4.5 4.5 h -0.847457 c -0.466102,0 -0.855085,-0.0076 -0.864407,-0.01695 z"
     id="path5384"
     inkscape:connector-curvature="0" /><path
     style="fill:#4d4d4d;fill-opacity:1;stroke-width:0.02542373"
     d="m 23.490281,19.330554 c -0.135919,-0.03821 -0.307669,-0.200464 -0.378784,-0.357843 l -0.06075,-0.134432 V 16.32133 13.80438 l 0.05536,-0.103429 c 0.07117,-0.132956 0.228807,-0.274977 0.35445,-0.319331 0.159144,-0.05618 0.504904,-0.04194 0.663757,0.02734 0.158816,0.06926 0.323058,0.238713 0.362378,0.373868 0.02037,0.07003 0.02629,0.805682 0.02083,2.589346 l -0.0076,2.491525 -0.06007,0.114407 c -0.135425,0.257914 -0.313189,0.361376 -0.63908,0.371957 -0.118856,0.0039 -0.258567,-0.0049 -0.31047,-0.01951 z"
     id="path5386"
     inkscape:connector-curvature="0" /><path
     style="fill:#4d4d4d;fill-opacity:1;stroke-width:0.02542373"
     d="m 19.909124,35.900973 c -0.259488,-0.06997 -0.488031,-0.266037 -0.596816,-0.51202 -0.141987,-0.321057 -0.138676,-0.227301 -0.138676,-3.926721 V 28.05438 h 0.749224 0.749223 l 0.0071,3.082628 0.0071,3.082627 0.05836,0.118464 c 0.04505,0.09146 0.0814,0.127683 0.159413,0.158898 0.127406,0.05098 0.194729,0.05084 0.346623,-7.34e-4 0.174661,-0.0593 0.378188,-0.194973 0.560605,-0.373708 l 0.158898,-0.155689 V 31.010623 28.05438 h 0.762712 0.762712 v 3.890209 3.890209 l -0.756356,-0.0067 -0.756356,-0.0067 -0.01271,-0.41396 -0.01271,-0.413959 -0.165254,0.169125 c -0.572659,0.586074 -1.336852,0.885735 -1.883152,0.738437 z"
     id="path5388"
     inkscape:connector-curvature="0" /><path
     style="fill:#4d4d4d;fill-opacity:1;stroke-width:0.02542373"
     d="m 27.147492,35.870004 c -0.295883,-0.07162 -0.655798,-0.287559 -0.864709,-0.518799 -0.05064,-0.05605 -0.09782,-0.101909 -0.104847,-0.101909 -0.007,0 -0.01278,0.131568 -0.01278,0.292373 v 0.292372 h -0.76271 -0.762712 V 30.57133 25.308618 h 0.762712 0.762712 v 1.677966 c 0,0.922881 0.0046,1.677966 0.01012,1.677966 0.0056,0 0.08279,-0.06954 0.171611,-0.154527 0.227853,-0.218027 0.476044,-0.375547 0.729204,-0.462808 0.187096,-0.06449 0.253763,-0.07483 0.473333,-0.07341 0.434193,0.0028 0.702042,0.10605 0.967429,0.3729 0.182022,0.183025 0.292,0.380598 0.379029,0.680915 0.113648,0.392177 0.120846,0.599515 0.110959,3.196251 -0.0092,2.413402 -0.0096,2.429245 -0.06574,2.641206 -0.145327,0.548491 -0.452362,0.887536 -0.912209,1.007311 -0.184575,0.04808 -0.678452,0.04674 -0.881395,-0.0024 z m 0.04596,-1.240327 c 0.06965,-0.03757 0.120176,-0.09276 0.165255,-0.180546 l 0.06493,-0.126435 v -2.301531 c 0,-2.144796 -0.0031,-2.310396 -0.04544,-2.43172 -0.152287,-0.436281 -0.73133,-0.516844 -1.117691,-0.155506 l -0.09534,0.08916 v 2.40199 2.401991 l 0.123507,0.115526 c 0.152471,0.142619 0.291772,0.215465 0.466754,0.244085 0.173949,0.02845 0.313163,0.01033 0.438029,-0.05702 z"
     id="path5390"
     inkscape:connector-curvature="0" /><path
     style="fill:#4d4d4d;fill-opacity:1;stroke-width:0.02542373"
     d="m 31.656683,36.020496 c -0.527265,-0.08304 -0.870013,-0.239782 -1.177615,-0.538525 -0.27527,-0.267342 -0.447744,-0.558845 -0.560145,-0.946717 -0.115642,-0.399058 -0.122115,-0.557747 -0.112426,-2.756297 0.0089,-2.022763 0.01006,-2.063035 0.06469,-2.268455 0.223152,-0.8391 0.866865,-1.435888 1.72256,-1.596991 0.348972,-0.0657 0.961862,-0.04137 1.269614,0.05041 0.356594,0.10634 0.554272,0.221978 0.804403,0.470562 0.182682,0.181553 0.238216,0.257146 0.337116,0.458884 0.23603,0.48146 0.270444,0.757939 0.270444,2.172727 v 1.056087 h -1.449152 -1.449153 l 4.41e-4,0.92161 c 4.69e-4,0.978322 0.01625,1.150062 0.125288,1.363802 0.02953,0.05789 0.0996,0.135039 0.157351,0.173258 0.0903,0.05976 0.135754,0.07028 0.342626,0.07933 0.217884,0.0095 0.250404,0.0046 0.375939,-0.0568 0.243223,-0.118998 0.295483,-0.270765 0.313795,-0.911281 l 0.0129,-0.451271 h 0.784981 0.784982 v 0.264256 c 0,0.623362 -0.08818,1.088008 -0.282035,1.486149 -0.106767,0.219278 -0.160659,0.295523 -0.323462,0.457627 -0.107443,0.106981 -0.261006,0.233011 -0.341252,0.280068 -0.331138,0.194182 -0.845311,0.311054 -1.341387,0.304898 -0.146822,-0.0018 -0.29555,-0.0078 -0.330508,-0.01332 z m 1.042373,-5.613169 c 0,-0.516833 -0.0222,-0.719268 -0.09492,-0.865658 -0.130823,-0.263342 -0.407315,-0.366673 -0.77459,-0.289481 -0.108154,0.02273 -0.157331,0.05156 -0.249335,0.146186 -0.172521,0.177432 -0.184526,0.233907 -0.196639,0.925074 l -0.01058,0.603814 h 0.663033 0.663034 z"
     id="path5392"
     inkscape:connector-curvature="0" /><rect
     style="fill:#4d4d4d;fill-opacity:1;stroke-width:1.19295192"
     id="rect5562"
     width="48.483047"
     height="2.0084746"
     x="-0.305085"
     y="-0.07627131" /><rect
     style="fill:#4d4d4d;fill-opacity:1"
     id="rect5564"
     width="11.313561"
     height="1.4491526"
     x="32.720337"
     y="1.2711864" /></svg>