<?xml version="1.0" encoding="UTF-8" standalone="no"?>
<!-- Created with Inkscape (http://www.inkscape.org/) -->

<svg
   xmlns:dc="http://purl.org/dc/elements/1.1/"
   xmlns:cc="http://creativecommons.org/ns#"
   xmlns:rdf="http://www.w3.org/1999/02/22-rdf-syntax-ns#"
   xmlns:svg="http://www.w3.org/2000/svg"
   xmlns="http://www.w3.org/2000/svg"
   xmlns:sodipodi="http://sodipodi.sourceforge.net/DTD/sodipodi-0.dtd"
   xmlns:inkscape="http://www.inkscape.org/namespaces/inkscape"
   version="1.1"
   id="svg815"
   xml:space="preserve"
   width="101.68"
   height="113.84"
   viewBox="0 0 101.68 113.84"
   sodipodi:docname="penn.svg"
   inkscape:version="0.92.2 (5c3e80d, 2017-08-06)"><metadata
     id="metadata821"><rdf:RDF><cc:Work
         rdf:about=""><dc:format>image/svg+xml</dc:format><dc:type
           rdf:resource="http://purl.org/dc/dcmitype/StillImage" /><dc:title></dc:title></cc:Work></rdf:RDF></metadata><defs
     id="defs819" /><sodipodi:namedview
     pagecolor="#ffffff"
     bordercolor="#666666"
     borderopacity="1"
     objecttolerance="10"
     gridtolerance="10"
     guidetolerance="10"
     inkscape:pageopacity="0"
     inkscape:pageshadow="2"
     inkscape:window-width="2560"
     inkscape:window-height="1361"
     id="namedview817"
     showgrid="false"
     inkscape:zoom="10.260014"
     inkscape:cx="50.84"
     inkscape:cy="56.919998"
     inkscape:window-x="2551"
     inkscape:window-y="-9"
     inkscape:window-maximized="1"
     inkscape:current-layer="g823" /><g
     id="g823"
     inkscape:groupmode="layer"
     inkscape:label="ink_ext_XXXXXX"
     transform="matrix(1.3333333,0,0,-1.3333333,0,113.84)"><g
       id="g825"
       transform="scale(0.1)"><path
         d="M 0.0820313,853.785 H 762.617 c 0,0 0,-374.601 0,-381.211 C 757.465,161.84 409.25,-1.49219 365.441,0.0117188 319.887,1.57422 -0.953125,161.383 0.00390625,474.184 0.0195313,479.82 0.0820313,853.785 0.0820313,853.785"
         style="fill:#ffffff;fill-opacity:1;fill-rule:nonzero;stroke:none"
         id="path827"
         inkscape:connector-curvature="0" /><path
         d="M 18.4688,833.516 H 744.711 c 0,0 0,-356.77 0,-363.055 C 739.785,174.516 408.145,18.9766 366.43,20.4023 323.051,21.8867 17.4805,174.086 18.3984,472.004 c 0.0118,5.351 0.0704,361.512 0.0704,361.512"
         style="fill:#ffffff;fill-opacity:1;fill-rule:nonzero;stroke:none"
         id="path829"
         inkscape:connector-curvature="0" /><path
         d="m 18.3984,612.875 c 1.0586,-1.043 0.0391,220.582 0.0391,220.582 H 744.152 c 0,0 0,-118.863 0,-220.586 l -725.7536,0.004"
         style="fill:#990000;fill-opacity:1;fill-rule:nonzero;stroke:none"
         id="path831"
         inkscape:connector-curvature="0" /><path
         d="m 20.75,615.402 720.883,-0.007 V 830.934 H 20.9727 C 21.707,670.645 21.6641,627.406 20.75,615.402 Z m 725.922,-5.054 -728.2697,0.004 -0.4257,2.613 -2.0157,0.426 c 0.7657,5.617 0.2266,160.75 -0.0468,220.058 l -0.0078,2.531 H 746.672 V 610.348"
         style="fill:#990000;fill-opacity:1;fill-rule:nonzero;stroke:none"
         id="path833"
         inkscape:connector-curvature="0" /><path
         d="M 59.0625,289.945 C 86.9727,231.273 121.484,184.027 169.934,143.832 l 211.32,213.652 203.394,-208.632 c 41.938,38.339 82.778,84.765 112.043,139.765 L 380.996,592.324 60.5117,289.32 l -1.4492,0.625"
         style="fill:#011f5b;fill-opacity:1;fill-rule:nonzero;stroke:none"
         id="path835"
         inkscape:connector-curvature="0" /><path
         d="M 62.7891,288.008 C 91,229.602 125.09,184.75 169.773,147.25 L 381.262,361.086 584.746,152.363 c 47.031,43.305 83.637,88.961 108.82,135.762 L 380.98,588.844 Z M 170.102,140.422 168.32,141.895 C 121.414,180.816 85.9727,227.516 56.7891,288.863 l -2.8868,6.059 6.086,-2.625 321.0317,303.508 318.789,-306.688 -0.891,-1.683 C 673.117,238.941 635.234,191.691 586.352,146.992 l -1.797,-1.644 -1.711,1.746 -201.602,206.793 -211.14,-213.465"
         style="fill:#011f5b;fill-opacity:1;fill-rule:nonzero;stroke:none"
         id="path837"
         inkscape:connector-curvature="0" /><path
         d="m 18.4023,608.852 v 5.05 L 744.105,614 v -5.051 L 18.4023,608.852"
         style="fill:#011f5b;fill-opacity:1;fill-rule:nonzero;stroke:none"
         id="path839"
         inkscape:connector-curvature="0" /><path
         d="m 562.316,778.645 h 19.754 c 14.477,3.304 19.746,11.699 34.59,11.699 10.688,0 15.727,-7.098 23.567,-7.098 6.628,0 16.804,7.567 27.976,7.567 11.406,0 17.055,-6.86 24.543,-10.047 6.633,-2.836 15.332,-2.684 24.539,-2.684 -0.254,-6.621 0,-10.551 0,-16.105 0,-5.672 7.602,-3.426 7.602,-12.649 0,-9.695 -9.828,-7.801 -9.828,-11.699 l -0.348,-36.047 c 0.484,-4.492 9.566,-5.082 9.566,-11.934 0,-10.164 -10.117,-6.644 -9.453,-14.656 0.489,-5.91 0,-18.437 0,-18.437 -19.511,0 -144.976,-1.149 -151.109,-0.914 0.371,13.355 2.437,12.558 2.898,18.992 0.371,5.203 -11.277,8.394 -11.277,17.14 0,6.032 6.98,5.672 7.598,11.348 v 35.926 c -0.375,4.726 -10.918,7.09 -10.559,13.824 0.438,8.063 9.813,7.031 9.813,12.418 0,2.359 0.253,11.109 0.128,13.356"
         style="fill:#ffffff;fill-opacity:1;fill-rule:nonzero;stroke:none"
         id="path841"
         inkscape:connector-curvature="0" /><path
         d="m 566.328,658.137 c 10.527,-0.035 49.633,0.261 84.555,0.519 26.465,0.196 51.238,0.387 61.504,0.418 0.117,3.899 0.269,11.567 -0.071,15.707 -0.449,5.426 2.93,7.332 5.391,8.731 2.441,1.371 4.055,2.285 4.055,6.136 0,2.364 -1.645,3.555 -4.328,5.309 -2.293,1.5 -4.895,3.199 -5.235,6.352 l 0.34,36.343 c 0,3.145 2.777,4.352 4.809,5.231 2.8,1.215 5.015,2.172 5.015,6.445 0,3.809 -1.402,4.731 -3.347,6.004 -1.797,1.176 -4.246,2.789 -4.246,6.645 0,1.855 -0.032,3.531 -0.059,5.187 -0.051,2.633 -0.09,5.219 -0.02,8.395 -0.019,0 -0.043,0 -0.05,0 -8.465,0 -16.438,0.129 -22.891,2.89 -2.539,1.082 -4.871,2.547 -7.117,3.965 -4.809,3.02 -9.348,5.871 -16.43,5.871 -5.816,0 -11.531,-2.297 -16.57,-4.328 -4.317,-1.734 -8.028,-3.234 -11.406,-3.234 -4.207,0 -7.676,1.734 -11.028,3.41 -3.621,1.808 -7.383,3.683 -12.539,3.683 -7.93,0 -12.84,-2.539 -18.531,-5.48 -4.238,-2.195 -9.035,-4.68 -15.488,-6.152 l -17.766,-0.055 c -0.012,-1.977 -0.059,-4.555 -0.098,-6.777 -0.039,-1.75 -0.066,-3.274 -0.066,-4.063 0,-3.898 -2.961,-5.617 -5.332,-6.996 -2.68,-1.559 -4.328,-2.664 -4.484,-5.559 -0.118,-2.234 1.867,-3.898 4.89,-6.191 2.656,-2 5.41,-4.066 5.664,-7.301 v -36.121 c -0.426,-4.094 -2.969,-6.008 -4.832,-7.406 -1.863,-1.402 -2.762,-2.156 -2.762,-3.942 0,-3.726 2.997,-6.332 5.887,-8.851 2.774,-2.414 5.645,-4.91 5.391,-8.469 -0.203,-2.777 -0.692,-4.43 -1.172,-6.023 -0.625,-2.082 -1.316,-4.407 -1.633,-10.293 z m 2.055,-5.051 c -2.524,0 -4.172,0.012 -4.77,0.035 l -2.488,0.094 0.066,2.496 c 0.239,8.492 1.172,11.637 1.938,14.164 0.445,1.516 0.809,2.715 0.965,4.941 0.078,1.043 -1.903,2.774 -3.66,4.301 -3.403,2.953 -7.618,6.637 -7.618,12.656 0,4.383 2.75,6.461 4.774,7.973 1.75,1.313 2.668,2.074 2.832,3.649 l -0.012,35.652 c -0.066,0.769 -2.058,2.262 -3.648,3.469 -3.203,2.406 -7.18,5.402 -6.907,10.492 0.313,5.762 4.329,8.101 6.985,9.644 2.195,1.274 2.832,1.774 2.832,2.637 0,0.809 0.027,2.367 0.058,4.16 0.067,3.367 0.157,7.598 0.067,9.051 l -0.149,2.668 h 22.422 c 5.278,1.266 9.575,3.492 13.743,5.645 6.015,3.113 11.699,6.054 20.847,6.054 6.352,0 10.844,-2.246 14.797,-4.222 3.086,-1.543 5.742,-2.872 8.77,-2.872 2.39,0 5.859,1.391 9.519,2.864 5.461,2.203 11.66,4.699 18.457,4.699 8.535,0 14.152,-3.535 19.113,-6.652 2.176,-1.371 4.239,-2.668 6.418,-3.598 5.836,-2.496 13.914,-2.504 22.215,-2.484 l 3.953,0.003 -0.093,-2.621 c -0.168,-4.332 -0.11,-7.496 -0.063,-10.738 0.031,-1.68 0.063,-3.383 0.063,-5.269 0,-1.039 0.32,-1.34 1.98,-2.43 2.234,-1.469 5.613,-3.688 5.613,-10.219 0,-7.59 -5.039,-9.773 -8.043,-11.074 -0.668,-0.289 -1.679,-0.723 -1.906,-0.973 l -0.223,-35.722 c 0.079,-0.489 1.543,-1.45 2.965,-2.379 2.785,-1.821 6.606,-4.321 6.606,-9.532 0,-6.8 -3.977,-9.046 -6.606,-10.531 -2.359,-1.328 -3.023,-1.808 -2.859,-3.918 0.5,-5.996 0.027,-18.226 0.012,-18.742 l -0.102,-2.43 h -2.422 c -8.191,0 -35.047,-0.199 -63.902,-0.418 -34.375,-0.257 -69.731,-0.523 -82.539,-0.523"
         style="fill:#011f5b;fill-opacity:1;fill-rule:nonzero;stroke:none"
         id="path843"
         inkscape:connector-curvature="0" /><path
         d="m 636.633,676.188 c -28.399,0 -55.93,0.054 -58.25,0.058 l -2.551,0.004 0.039,2.555 c 0.234,18.672 0,98.433 0,99.234 l 5.039,0.02 c 0.012,-0.774 0.227,-74.305 0.031,-96.77 37.735,-0.086 103.629,-0.117 117.125,0.152 -0.007,24.309 -0.117,97.196 -0.117,97.196 l 5.039,0.011 c 0,0 0.121,-78.246 0.121,-99.64 v -2.297 L 700.82,676.5 c -2.683,-0.25 -33.922,-0.312 -64.187,-0.312"
         style="fill:#011f5b;fill-opacity:1;fill-rule:nonzero;stroke:none"
         id="path845"
         inkscape:connector-curvature="0" /><path
         d="m 637.094,678.535 h 5.03906 V 783.012 H 637.094 Z"
         style="fill:#011f5b;fill-opacity:1;fill-rule:nonzero;stroke:none"
         id="path847"
         inkscape:connector-curvature="0" /><path
         d="m 641.469,691.418 c 5.144,-0.234 14.605,-3.715 23.797,-6.5 11.894,-3.605 24.519,-1.078 33.855,-2.953 2.949,-0.594 -57.652,-1.067 -57.652,-1.067 0.23,11.704 0,10.52 0,10.52"
         style="fill:#011f5b;fill-opacity:1;fill-rule:nonzero;stroke:none"
         id="path849"
         inkscape:connector-curvature="0" /><path
         d="m 644.094,688.535 c 0.011,-1.328 -0.008,-2.996 -0.059,-5.094 5.293,0.047 11.121,0.102 16.945,0.164 -1.066,0.34 -2.128,0.676 -3.183,1.016 -5.156,1.645 -10.09,3.223 -13.703,3.914 z m -5.203,-10.18 0.054,2.594 c 0.078,4.149 0.11,6.606 0.102,8.051 l -0.625,0.027 1.016,5.145 2.312,-0.211 c 0.234,-0.023 0.441,-0.051 0.625,-0.078 4.199,-0.383 10.137,-2.281 16.953,-4.457 2.195,-0.699 4.445,-1.418 6.668,-2.098 6.567,-1.984 13.391,-2.004 19.984,-2.031 4.879,-0.012 9.493,-0.027 13.641,-0.863 l 2.227,-0.446 -0.11,-2.308 c -0.093,-1.032 -0.164,-1.688 -3.093,-2.129 l -0.02,-0.063 c -0.059,0.016 -0.117,0.024 -0.176,0.035 -5.273,-0.742 -19.277,-0.851 -56.965,-1.148 l -2.593,-0.02"
         style="fill:#011f5b;fill-opacity:1;fill-rule:nonzero;stroke:none"
         id="path851"
         inkscape:connector-curvature="0" /><path
         d="m 632.734,675.934 c 0,2.613 3.059,4.73 6.821,4.73 3.765,0 6.812,-2.117 6.812,-4.73 0,-2.61 -3.047,-4.723 -6.812,-4.723 -3.762,0 -6.821,2.113 -6.821,4.723"
         style="fill:#011f5b;fill-opacity:1;fill-rule:nonzero;stroke:none"
         id="path853"
         inkscape:connector-curvature="0" /><path
         d="m 639.555,678.141 c -2.578,0 -4.297,-1.328 -4.297,-2.207 0,-0.875 1.719,-2.2 4.297,-2.2 2.617,0 4.297,1.301 4.297,2.2 0,0.898 -1.68,2.207 -4.297,2.207 z m 0,-9.453 c -5.239,0 -9.336,3.183 -9.336,7.246 0,4.066 4.097,7.254 9.336,7.254 5.23,0 9.336,-3.188 9.336,-7.254 0,-4.063 -4.106,-7.246 -9.336,-7.246"
         style="fill:#011f5b;fill-opacity:1;fill-rule:nonzero;stroke:none"
         id="path855"
         inkscape:connector-curvature="0" /><path
         d="m 636.215,691.418 c -5.156,-0.234 -14.613,-3.715 -23.813,-6.5 -11.89,-3.605 -24.511,-1.078 -33.843,-2.953 -2.954,-0.594 57.656,-1.067 57.656,-1.067 -0.246,11.704 0,10.52 0,10.52"
         style="fill:#011f5b;fill-opacity:1;fill-rule:nonzero;stroke:none"
         id="path857"
         inkscape:connector-curvature="0" /><path
         d="m 616.691,683.605 c 5.832,-0.062 11.661,-0.117 16.946,-0.164 -0.039,2.098 -0.071,3.766 -0.063,5.094 -3.601,-0.691 -8.523,-2.265 -13.66,-3.906 -1.062,-0.336 -2.141,-0.684 -3.223,-1.024 z m 22.102,-5.25 -2.602,0.02 c -37.683,0.297 -51.687,0.406 -56.961,1.148 -0.058,-0.011 -0.117,-0.019 -0.175,-0.035 l -0.008,0.063 c -2.942,0.441 -3.012,1.097 -3.106,2.129 l -0.214,2.265 2.332,0.493 c 4.152,0.832 8.757,0.847 13.64,0.859 6.594,0.027 13.41,0.047 19.973,2.031 2.246,0.684 4.504,1.402 6.711,2.11 6.812,2.175 12.754,4.074 16.953,4.445 0.176,0.027 0.367,0.047 0.574,0.074 l 2.293,0.258 1.074,-5.188 -0.652,-0.027 c 0,-1.445 0.02,-3.898 0.105,-8.047 l 0.063,-2.598"
         style="fill:#011f5b;fill-opacity:1;fill-rule:nonzero;stroke:none"
         id="path859"
         inkscape:connector-curvature="0" /><path
         d="m 234.063,646.039 c 1.953,-7.68 7.726,-12.762 17.167,-12.762 17.551,0 34.485,13.004 44.668,20.328 7.969,5.672 16.196,11.7 16.196,24.11 l -1.465,-4.727 c 0,0 13.738,13.707 47.594,2.836 9.418,-3.019 49.699,-25.644 58.41,-29.308 7.488,-3.196 33.719,-22.012 74.715,-14.758 0,0 62.597,8.613 48.617,73.078 -9.992,46.074 -6.899,49.344 -3.086,64.117 -1.469,0.711 -38.281,8.981 -37.309,-42.074 -15.957,-1.652 -36.316,-13.703 -23.062,-45.383 5.398,8.039 12.633,16.547 22.578,16.547 6.25,0 12.848,-8.988 13.25,-15.602 0.984,-16.074 -15.215,-23.164 -35.332,-19.851 -10.203,1.672 -19.602,12.976 -33.66,23.152 2.461,1.184 4.695,9.461 4.695,12.774 0,8.156 -6.992,11.933 -11.769,14.66 0.976,2.832 2.929,6.613 2.929,9.453 0,6.496 -9.195,6.023 -12.754,8.504 1.465,2.012 1.465,0.824 1.465,3.785 0,9.457 1.485,14.656 -17.652,14.18 1.59,9.34 -0.371,15.367 -6.875,17.968 l -14.242,1.887 c -8.828,1.652 -0.02,4.598 -8.172,12.453 -7.278,7.016 -19.246,0 -19.246,0 0,6.5 -4.477,11.66 -12.328,11.66 -4.176,0 -9.325,-0.355 -12.262,-1.894 l -5.903,-4.727 c -7.363,0 -9.199,6.621 -17.664,6.621 -8.468,0 -11.906,-6.621 -15.214,-10.875 -5.774,2.719 -6.504,7.567 -14.231,7.567 -4.539,0 -5.887,-4.848 -7.851,-7.09 -5.04,-5.559 -4.676,-11.316 -12.528,-14.152 l -2.922,5.136 c -0.097,0.325 -0.175,0.649 -0.254,0.977 -11.543,-5.555 -37.554,-64.883 -37.554,-77.051 0,-11.586 10.066,-6.508 10.066,-18.922 0,-7.324 -10.793,-12.644 -10.793,-18.906 0,-7.918 9.199,-11.816 17.168,-11.816 l -5.39,-1.895"
         style="fill:#ffffff;fill-opacity:1;fill-rule:nonzero;stroke:none"
         id="path861"
         inkscape:connector-curvature="0" /><path
         d="m 334.055,682.551 c 6.789,0 15.05,-1.149 24.941,-4.324 5.774,-1.852 22.129,-10.493 36.555,-18.11 9.566,-5.054 18.601,-9.824 22.058,-11.277 1.121,-0.481 2.637,-1.281 4.532,-2.293 11.179,-5.961 34.433,-18.387 68.769,-12.309 0.352,0.055 26.262,3.871 39.988,23.555 8.45,12.105 10.668,27.75 6.606,46.508 -9.238,42.57 -7.395,49.332 -4.055,61.601 l 0.313,1.149 c -3.789,0.5 -12.149,0.898 -19.317,-4.285 -8.535,-6.192 -12.683,-18.25 -12.351,-35.836 l 0.047,-2.321 -2.305,-0.238 c -9.805,-1.016 -18.035,-5.637 -22.031,-12.363 -3.867,-6.528 -4.082,-14.985 -0.625,-25.192 5.285,7.036 12.336,13.747 21.906,13.747 7.762,0 15.293,-10.051 15.769,-17.969 0.403,-6.559 -1.789,-12.192 -6.328,-16.289 -6.816,-6.153 -18.449,-8.418 -31.933,-6.203 -7.528,1.238 -14.383,7.003 -22.317,13.683 -3.867,3.258 -7.859,6.621 -12.41,9.918 l -3.437,2.481 3.816,1.828 c 1.215,0.91 3.274,7.41 3.274,10.504 0,6.488 -5.625,9.695 -10.149,12.265 l -1.812,1.035 0.332,2.18 c 0.281,0.813 0.632,1.703 1.004,2.625 0.839,2.074 1.789,4.434 1.789,6.008 0,2.121 -1.633,2.961 -6.235,4.269 -2.027,0.579 -3.953,1.125 -5.445,2.168 l -2.109,1.473 1.511,2.078 c 0.418,0.571 0.742,0.934 0.989,1.196 0,0.261 0,0.613 0,1.105 l 0.007,1.934 c 0.047,3.929 0.008,6.214 -1.289,7.496 -1.711,1.695 -6.23,2.461 -13.797,2.23 l -3.058,-0.078 0.515,3.023 c 1.848,10.844 -1.882,13.821 -5.332,15.204 l -13.628,1.73 c -5.665,1.055 -6.665,3.207 -6.528,6.57 0.07,1.625 0.149,3.469 -3.062,6.563 -5.825,5.605 -16.125,-0.297 -16.223,-0.356 l -3.801,-2.226 v 4.398 c 0,5.551 -3.844,9.141 -9.801,9.141 -5.175,0 -9.113,-0.57 -11.093,-1.606 l -6.184,-5.015 h -0.891 c -4.324,0 -7.117,1.898 -9.578,3.574 -2.402,1.637 -4.48,3.047 -8.086,3.047 -6,0 -8.933,-4.039 -11.773,-7.945 -0.492,-0.684 -0.977,-1.34 -1.453,-1.957 l -1.235,-1.59 -1.828,0.859 c -2.5,1.176 -4.156,2.668 -5.609,3.992 -2.219,2.004 -3.684,3.332 -7.547,3.332 -1.742,0 -2.66,-1.187 -4.207,-3.707 -0.582,-0.949 -1.141,-1.836 -1.742,-2.523 -1.649,-1.813 -2.672,-3.68 -3.664,-5.481 -1.961,-3.558 -3.988,-7.242 -9.91,-9.382 l -1.996,-0.719 -3.047,5.355 c -10.926,-10.453 -34.028,-61.57 -34.028,-73.203 0,-4.363 1.52,-5.41 3.817,-6.98 2.789,-1.914 6.254,-4.297 6.254,-11.942 0,-4.765 -3.375,-8.547 -6.352,-11.883 -2.281,-2.558 -4.437,-4.976 -4.437,-7.023 0,-6.77 8.984,-9.297 14.644,-9.297 l 0.836,-4.894 -3.074,-1.082 c 2.25,-5.618 7.148,-8.68 14.019,-8.68 15.75,0 31.196,11.176 41.418,18.57 l 1.778,1.281 c 6.379,4.543 12.929,9.211 14.687,17.54 l -0.898,0.546 1.465,4.727 3.668,-0.555 c 3.996,2.164 10.742,4.645 20.703,4.645 z m 138.918,-54.957 c -25.996,-0.004 -44.414,9.82 -53.203,14.508 -1.731,0.921 -3.11,1.66 -4.122,2.093 -3.656,1.539 -12.367,6.137 -22.453,11.465 -13.535,7.149 -30.39,16.043 -35.742,17.762 -25.332,8.144 -38.84,1.949 -43.332,-0.949 -2.055,-10.45 -10.109,-16.188 -16.762,-20.926 l -1.75,-1.262 c -10.75,-7.781 -26.996,-19.527 -44.375,-19.527 -10.093,0 -17.242,5.34 -19.613,14.664 l -0.308,1.23 c -6.411,2.016 -11.543,6.473 -11.543,13.098 0,3.973 2.902,7.227 5.714,10.379 2.496,2.797 5.075,5.684 5.075,8.527 0,4.989 -1.707,6.16 -4.075,7.785 -2.668,1.832 -5.996,4.118 -5.996,11.137 0,13.106 26.489,73.305 38.989,79.32 l 2.816,1.36 0.941,-3.871 1.547,-2.653 c 2.696,1.481 3.832,3.543 5.309,6.227 1.078,1.957 2.305,4.184 4.316,6.398 0.403,0.465 0.789,1.125 1.211,1.809 1.492,2.437 3.754,6.109 8.504,6.109 5.809,0 8.527,-2.461 10.93,-4.636 0.84,-0.762 1.656,-1.496 2.613,-2.153 0.016,0.024 0.031,0.055 0.055,0.078 3.07,4.231 7.273,10.02 15.847,10.02 5.157,0 8.223,-2.078 10.918,-3.922 1.993,-1.348 3.606,-2.445 5.911,-2.66 l 5.164,4.137 c 3.171,1.714 7.683,2.445 13.839,2.445 7.352,0 12.84,-4.129 14.403,-10.414 4.57,1.82 12.89,3.851 18.918,-1.949 4.844,-4.668 4.695,-8.262 4.605,-10.407 -0.008,-0.281 -0.027,-0.656 -0.008,-0.843 0.008,0.054 0.579,-0.219 2.286,-0.535 l 14.113,-1.872 c 7.265,-2.832 10.281,-8.812 9.422,-17.921 7.558,-0.059 11.98,-1.2 14.519,-3.704 2.883,-2.847 2.844,-6.695 2.793,-11.144 l -0.015,-1.879 c 0,-1.211 0,-2.016 -0.188,-2.707 0.52,-0.156 1.055,-0.313 1.594,-0.461 3.933,-1.121 9.883,-2.812 9.883,-9.121 0,-2.551 -1.145,-5.387 -2.153,-7.891 -0.054,-0.152 -0.117,-0.304 -0.183,-0.449 5.136,-3.035 11.172,-7.398 11.172,-15.773 0,-2.344 -1.204,-8.614 -3.504,-12.383 3.816,-2.891 7.324,-5.84 10.476,-8.492 7.364,-6.2 13.723,-11.551 19.883,-12.567 11.785,-1.937 22.156,-0.07 27.734,4.969 3.411,3.078 4.981,7.199 4.668,12.242 -0.324,5.348 -6.035,13.238 -10.73,13.238 -8.977,0 -15.664,-8.246 -20.488,-15.433 l -2.61,-3.887 -1.804,4.32 c -5.743,13.719 -5.981,25.18 -0.715,34.059 4.48,7.543 13.183,12.863 23.562,14.504 0.039,18.977 5.344,31.969 15.766,38.648 10.984,7.032 23.855,4.125 25.176,3.493 l 1.863,-0.899 -1.523,-5.746 c -3.125,-11.512 -4.852,-17.848 4.113,-59.215 4.383,-20.199 1.89,-37.191 -7.414,-50.5 -15.032,-21.492 -42.168,-25.449 -43.321,-25.605 -6.613,-1.172 -12.863,-1.668 -18.718,-1.668"
         style="fill:#011f5b;fill-opacity:1;fill-rule:nonzero;stroke:none"
         id="path863"
         inkscape:connector-curvature="0" /><path
         d="m 261.176,695.883 c 0,0 12.762,-4.91 12.762,-7.563 0,-3.593 -8.254,-7.558 -13.743,-12.289 h -6.875 c 2.461,8.035 0,5.106 0,12.289 0,5.391 5.696,7.563 7.856,7.563"
         style="fill:#011f5b;fill-opacity:1;fill-rule:nonzero;stroke:none"
         id="path865"
         inkscape:connector-curvature="0" /><path
         d="m 256.613,678.555 h 2.664 c 1.719,1.406 3.641,2.75 5.481,4.035 2.211,1.547 5.785,4.043 6.523,5.375 -1.324,1.211 -5.843,3.531 -10.476,5.355 -1.395,-0.242 -4.957,-1.64 -4.957,-5 0,-2.504 0.316,-3.496 0.593,-4.371 0.512,-1.601 0.723,-2.82 0.172,-5.394 z m 4.524,-5.047 h -11.223 l 0.996,3.262 c 1.238,4.043 1.055,4.613 0.727,5.648 -0.356,1.102 -0.84,2.613 -0.84,5.902 0,6.715 6.652,10.09 10.379,10.09 l 0.906,-0.172 c 14.379,-5.531 14.379,-8.715 14.379,-9.918 0,-3.711 -4.086,-6.562 -8.816,-9.867 -1.969,-1.371 -4.036,-2.808 -5.801,-4.332 l -0.707,-0.613"
         style="fill:#011f5b;fill-opacity:1;fill-rule:nonzero;stroke:none"
         id="path867"
         inkscape:connector-curvature="0" /><path
         d="m 434.465,653.516 -5,0.617 c 0.945,7.801 -1.57,8.703 -5.399,10.078 -2.765,0.996 -6.203,2.227 -7.304,6.469 -0.364,1.449 -0.598,3.113 -0.84,4.879 -0.606,4.414 -1.301,9.414 -4.375,11.316 -2.297,1.422 -6.059,1.262 -11.176,-0.465 l -3.453,-1.16 0.137,3.648 c 0.261,7.051 -1.379,11.957 -4.856,14.579 -5.761,4.351 -15.301,1.398 -15.398,1.367 l -3.801,-1.246 0.52,3.965 c 0.613,4.781 -0.942,9.695 -4.258,13.48 -2.434,2.762 -5.489,4.477 -7.969,4.477 -3.605,0 -6.25,-1.395 -9.063,-2.872 -2.609,-1.378 -5.312,-2.804 -8.605,-2.804 -4.812,0 -8.176,1.773 -11.426,3.48 -3.066,1.614 -5.957,3.137 -10.168,3.137 -4.812,0 -5.691,-1.699 -7.144,-4.523 -1.133,-2.188 -2.547,-4.911 -5.996,-6.571 l -2.192,4.551 c 1.938,0.926 2.711,2.43 3.699,4.34 1.672,3.226 3.754,7.25 11.633,7.25 5.461,0 9.211,-1.977 12.524,-3.719 2.949,-1.555 5.508,-2.894 9.07,-2.894 2.043,0 3.992,1.023 6.262,2.214 3.062,1.621 6.551,3.457 11.406,3.457 3.941,0 8.34,-2.316 11.746,-6.195 3.477,-3.949 5.449,-8.879 5.637,-13.918 4.16,0.715 11.179,1.106 16.558,-2.949 4.211,-3.172 6.504,-8.324 6.848,-15.344 5.09,1.238 9.063,0.899 12.109,-0.992 5.098,-3.156 6.004,-9.68 6.731,-14.918 0.215,-1.57 0.418,-3.066 0.73,-4.332 0.391,-1.488 1.438,-1.996 4.121,-2.957 4.036,-1.449 10.137,-3.645 8.692,-15.445"
         style="fill:#011f5b;fill-opacity:1;fill-rule:nonzero;stroke:none"
         id="path869"
         inkscape:connector-curvature="0" /><path
         d="m 45.8594,778.004 h 19.7578 c 14.4805,3.309 19.7578,11.703 34.6018,11.703 10.679,0 15.703,-7.094 23.551,-7.094 6.621,0 16.82,7.563 27.98,7.563 11.418,0 17.059,-6.856 24.543,-10.043 6.617,-2.836 15.328,-2.692 24.539,-2.692 -0.242,-6.617 0,-10.546 0,-16.101 0,-5.676 7.606,-3.43 7.606,-12.645 0,-9.691 -9.825,-7.8 -9.825,-11.699 l -0.359,-36.055 c 0.488,-4.488 9.57,-5.078 9.57,-11.933 0,-10.164 -10.105,-6.645 -9.441,-14.653 0.484,-5.914 0,-18.437 0,-18.437 -19.516,0 -142.3361,-0.121 -148.4689,0.117 0.3711,13.356 -0.2032,11.528 0.2422,17.965 0.371,5.199 -11.2891,8.387 -11.2891,17.137 0,6.027 6.9922,5.676 7.6094,11.343 v 35.934 c -0.3633,4.723 -10.918,7.09 -10.5547,13.828 0.4453,8.051 9.8203,7.02 9.8203,12.406 0,2.364 0.2461,11.11 0.1172,13.356"
         style="fill:#ffffff;fill-opacity:1;fill-rule:nonzero;stroke:none"
         id="path871"
         inkscape:connector-curvature="0" /><path
         d="m 52.4961,658.516 c 15.1484,-0.137 89.7739,-0.098 127.1249,-0.082 l 16.32,0.004 c 0.11,3.906 0.266,11.566 -0.074,15.707 -0.449,5.425 2.93,7.332 5.395,8.726 2.429,1.371 4.039,2.281 4.039,6.137 0,2.371 -1.641,3.562 -4.321,5.312 -2.292,1.5 -4.89,3.2 -5.238,6.348 l 0.348,36.355 c 0,3.145 2.785,4.344 4.808,5.227 2.805,1.211 5.016,2.168 5.016,6.445 0,3.801 -1.398,4.723 -3.344,5.993 -1.797,1.183 -4.261,2.792 -4.261,6.652 0,1.859 -0.028,3.535 -0.055,5.187 -0.043,2.633 -0.082,5.223 -0.02,8.391 -8.492,0 -16.48,0.133 -22.933,2.895 -2.539,1.085 -4.863,2.542 -7.113,3.96 -4.805,3.024 -9.344,5.879 -16.438,5.879 -5.816,0 -11.531,-2.3 -16.578,-4.332 -4.313,-1.734 -8.031,-3.23 -11.399,-3.23 -4.218,0 -7.683,1.73 -11.027,3.406 -3.625,1.813 -7.375,3.688 -12.527,3.688 -7.9299,0 -12.844,-2.539 -18.5354,-5.485 -4.2383,-2.191 -9.043,-4.676 -15.5039,-6.156 l -17.7578,-0.055 c -0.0117,-1.992 -0.0547,-4.593 -0.0938,-6.832 -0.0351,-1.722 -0.0586,-3.222 -0.0586,-4.008 0,-3.894 -2.9648,-5.613 -5.3437,-6.996 -2.6758,-1.558 -4.3242,-2.656 -4.4844,-5.55 -0.125,-2.239 1.8594,-3.903 4.9024,-6.192 2.6562,-2.004 5.3984,-4.074 5.6484,-7.305 L 49,702.48 c -0.4297,-4.089 -2.9805,-6.003 -4.8437,-7.402 -1.8672,-1.406 -2.7618,-2.156 -2.7618,-3.941 0,-3.723 2.9922,-6.332 5.8946,-8.852 2.7734,-2.41 5.6367,-4.906 5.3828,-8.465 -0.2071,-3.015 -0.1836,-4.148 -0.1446,-5.996 0.0352,-1.777 0.086,-4.179 -0.0312,-9.308 z m 65.9019,-5.153 c -33.6675,0 -65.5035,0.032 -68.5816,0.153 l -2.4961,0.097 0.0742,2.492 c 0.1875,6.782 0.1289,9.61 0.0899,11.614 -0.0469,1.988 -0.0703,3.211 0.1601,6.457 0.0743,1.051 -1.914,2.777 -3.6679,4.301 -3.3985,2.953 -7.6328,6.636 -7.6328,12.66 0,4.386 2.7656,6.461 4.7851,7.976 1.75,1.313 2.6719,2.071 2.8399,3.641 l -0.0157,35.66 c -0.0625,0.766 -2.0508,2.262 -3.6484,3.461 -3.1992,2.414 -7.1758,5.41 -6.9024,10.504 0.3204,5.758 4.336,8.09 6.9922,9.633 2.1914,1.273 2.8243,1.773 2.8243,2.636 0,0.805 0.0312,2.336 0.0664,4.102 0.0586,3.383 0.1406,7.652 0.0586,9.113 l -0.1524,2.664 h 22.4258 c 5.2734,1.27 9.582,3.496 13.7461,5.649 6.0156,3.117 11.6992,6.054 20.8557,6.054 6.347,0 10.828,-2.246 14.785,-4.222 3.078,-1.543 5.738,-2.871 8.769,-2.871 2.391,0 5.852,1.39 9.516,2.867 5.469,2.203 11.668,4.695 18.461,4.695 8.551,0 14.164,-3.539 19.125,-6.66 2.18,-1.367 4.234,-2.66 6.406,-3.586 5.836,-2.5 13.938,-2.515 22.258,-2.492 l 3.91,0.004 -0.097,-2.617 c -0.157,-4.328 -0.11,-7.493 -0.055,-10.735 0.031,-1.687 0.058,-3.386 0.058,-5.273 0,-1.043 0.325,-1.344 1.981,-2.43 2.238,-1.469 5.629,-3.691 5.629,-10.215 0,-7.586 -5.043,-9.769 -8.059,-11.078 -0.664,-0.289 -1.668,-0.722 -1.898,-0.965 l -0.231,-35.734 c 0.071,-0.484 1.539,-1.445 2.961,-2.371 2.785,-1.824 6.61,-4.324 6.61,-9.539 0,-6.801 -3.973,-9.047 -6.606,-10.531 -2.351,-1.329 -3.023,-1.805 -2.847,-3.911 0.496,-6 0.027,-18.226 0.003,-18.746 l -0.089,-2.425 -21.188,-0.004 c -16.074,-0.012 -39.043,-0.028 -61.223,-0.028"
         style="fill:#011f5b;fill-opacity:1;fill-rule:nonzero;stroke:none"
         id="path873"
         inkscape:connector-curvature="0" /><path
         d="m 120.18,675.551 c -28.3987,0 -55.9339,0.054 -58.2503,0.058 l -2.5469,0.008 0.0274,2.551 c 0.2461,18.672 0.0078,98.434 0,99.234 l 5.0507,0.02 c 0,-0.77 0.2188,-74.301 0.0235,-96.766 37.7386,-0.07 103.6486,-0.113 117.1326,0.149 -0.004,24.308 -0.125,97.195 -0.125,97.195 l 5.047,0.008 c 0,0 0.129,-78.242 0.129,-99.633 v -2.301 l -2.297,-0.211 c -2.687,-0.246 -33.93,-0.312 -64.191,-0.312"
         style="fill:#011f5b;fill-opacity:1;fill-rule:nonzero;stroke:none"
         id="path875"
         inkscape:connector-curvature="0" /><path
         d="m 120.641,677.902 h 5.05078 V 782.379 H 120.641 Z"
         style="fill:#011f5b;fill-opacity:1;fill-rule:nonzero;stroke:none"
         id="path877"
         inkscape:connector-curvature="0" /><path
         d="m 125.004,690.781 c 5.152,-0.238 14.617,-3.715 23.805,-6.5 11.894,-3.605 24.511,-1.078 33.859,-2.953 2.949,-0.59 -57.664,-1.062 -57.664,-1.062 0.242,11.699 0,10.515 0,10.515"
         style="fill:#011f5b;fill-opacity:1;fill-rule:nonzero;stroke:none"
         id="path879"
         inkscape:connector-curvature="0" /><path
         d="m 127.641,687.895 c 0.004,-1.329 -0.024,-2.993 -0.067,-5.086 5.289,0.043 11.117,0.097 16.949,0.16 -1.082,0.344 -2.164,0.687 -3.226,1.027 -5.137,1.641 -10.051,3.207 -13.656,3.899 z m -5.215,-10.176 0.051,2.597 c 0.089,4.153 0.113,6.61 0.113,8.055 l -0.652,0.027 1.058,5.149 2.309,-0.227 c 0.207,-0.023 0.394,-0.043 0.57,-0.07 4.199,-0.379 10.137,-2.273 16.953,-4.445 2.207,-0.707 4.469,-1.426 6.715,-2.11 6.566,-1.992 13.383,-2.011 19.98,-2.031 4.883,-0.016 9.493,-0.031 13.645,-0.859 l 2.227,-0.45 -0.11,-2.308 c -0.101,-1.031 -0.16,-1.692 -3.094,-2.129 l -0.015,-0.066 c -0.059,0.015 -0.117,0.027 -0.176,0.039 -5.277,-0.746 -19.289,-0.852 -56.977,-1.153 l -2.597,-0.019"
         style="fill:#011f5b;fill-opacity:1;fill-rule:nonzero;stroke:none"
         id="path881"
         inkscape:connector-curvature="0" /><path
         d="m 116.289,675.297 c 0,2.613 3.051,4.734 6.816,4.734 3.762,0 6.797,-2.121 6.797,-4.734 0,-2.606 -3.035,-4.727 -6.797,-4.727 -3.765,0 -6.816,2.121 -6.816,4.727"
         style="fill:#011f5b;fill-opacity:1;fill-rule:nonzero;stroke:none"
         id="path883"
         inkscape:connector-curvature="0" /><path
         d="m 123.109,677.504 c -2.625,0 -4.293,-1.309 -4.293,-2.207 0,-0.879 1.707,-2.199 4.293,-2.199 2.606,0 4.27,1.3 4.27,2.199 0,0.898 -1.664,2.207 -4.27,2.207 z m 0,-9.457 c -5.238,0 -9.343,3.187 -9.343,7.25 0,4.07 4.105,7.258 9.343,7.258 5.223,0 9.321,-3.188 9.321,-7.258 0,-4.063 -4.098,-7.25 -9.321,-7.25"
         style="fill:#011f5b;fill-opacity:1;fill-rule:nonzero;stroke:none"
         id="path885"
         inkscape:connector-curvature="0" /><path
         d="m 119.766,690.781 c -5.157,-0.238 -14.618,-3.715 -23.8051,-6.5 -11.8984,-3.605 -24.5156,-1.078 -33.8671,-2.953 -2.9415,-0.59 57.6722,-1.062 57.6722,-1.062 -0.25,11.699 0,10.515 0,10.515"
         style="fill:#011f5b;fill-opacity:1;fill-rule:nonzero;stroke:none"
         id="path887"
         inkscape:connector-curvature="0" /><path
         d="m 100.246,682.969 c 5.824,-0.063 11.656,-0.117 16.945,-0.16 -0.046,2.093 -0.07,3.757 -0.066,5.086 -3.605,-0.692 -8.52,-2.258 -13.652,-3.899 -1.063,-0.34 -2.145,-0.683 -3.227,-1.027 z m 22.102,-5.25 -2.602,0.019 c -37.6913,0.301 -51.7069,0.407 -56.9843,1.153 -0.0586,-0.012 -0.1172,-0.024 -0.1719,-0.039 l -0.0156,0.066 c -2.9336,0.437 -2.9961,1.098 -3.0937,2.129 l -0.2188,2.266 2.3321,0.488 c 4.1562,0.832 8.7695,0.847 13.6484,0.863 6.5976,0.02 13.418,0.039 19.9844,2.031 2.2461,0.684 4.5078,1.403 6.7144,2.11 6.832,2.175 12.782,4.078 16.981,4.449 0.164,0.023 0.344,0.043 0.531,0.066 l 2.281,0.27 1.125,-5.192 -0.683,-0.027 c 0,-1.445 0.023,-3.898 0.109,-8.055 l 0.063,-2.597"
         style="fill:#011f5b;fill-opacity:1;fill-rule:nonzero;stroke:none"
         id="path889"
         inkscape:connector-curvature="0" /><path
         d="m 143.164,314.125 c 0,33.711 28.371,61.055 63.359,61.055 35,0 63.372,-27.344 63.372,-61.055 0,-33.711 -28.372,-61.016 -63.372,-61.016 -34.988,0 -63.359,27.305 -63.359,61.016"
         style="fill:#ffffff;fill-opacity:1;fill-rule:nonzero;stroke:none"
         id="path891"
         inkscape:connector-curvature="0" /><path
         d="m 206.523,372.656 c -33.543,0 -60.832,-26.254 -60.832,-58.531 0,-32.25 27.289,-58.488 60.832,-58.488 33.551,0 60.848,26.238 60.848,58.488 0,32.277 -27.297,58.531 -60.848,58.531 z m 0,-122.07 c -36.328,0 -65.882,28.508 -65.882,63.539 0,35.059 29.554,63.582 65.882,63.582 36.336,0 65.895,-28.523 65.895,-63.582 0,-35.031 -29.559,-63.539 -65.895,-63.539"
         style="fill:#011f5b;fill-opacity:1;fill-rule:nonzero;stroke:none"
         id="path893"
         inkscape:connector-curvature="0" /><path
         d="m 317.363,460.738 c 0,33.711 28.379,61.035 63.36,61.035 35,0 63.363,-27.324 63.363,-61.035 0,-33.715 -28.363,-61.027 -63.363,-61.027 -34.981,0 -63.36,27.312 -63.36,61.027"
         style="fill:#ffffff;fill-opacity:1;fill-rule:nonzero;stroke:none"
         id="path895"
         inkscape:connector-curvature="0" /><path
         d="m 380.727,519.254 c -33.547,0 -60.84,-26.25 -60.84,-58.516 0,-32.261 27.293,-58.508 60.84,-58.508 33.543,0 60.839,26.247 60.839,58.508 0,32.266 -27.296,58.516 -60.839,58.516 z m 0,-122.063 c -36.329,0 -65.879,28.508 -65.879,63.547 0,35.043 29.55,63.555 65.879,63.555 36.328,0 65.878,-28.512 65.878,-63.555 0,-35.039 -29.55,-63.547 -65.878,-63.547"
         style="fill:#011f5b;fill-opacity:1;fill-rule:nonzero;stroke:none"
         id="path897"
         inkscape:connector-curvature="0" /><path
         d="m 481.723,314.125 c 0,33.711 28.367,61.055 63.367,61.055 34.988,0 63.359,-27.344 63.359,-61.055 0,-33.711 -28.371,-61.016 -63.359,-61.016 -35,0 -63.367,27.305 -63.367,61.016"
         style="fill:#ffffff;fill-opacity:1;fill-rule:nonzero;stroke:none"
         id="path899"
         inkscape:connector-curvature="0" /><path
         d="m 545.09,372.656 c -33.555,0 -60.852,-26.254 -60.852,-58.531 0,-32.25 27.297,-58.488 60.852,-58.488 33.547,0 60.84,26.238 60.84,58.488 0,32.277 -27.293,58.531 -60.84,58.531 z m 0,-122.07 c -36.328,0 -65.891,28.508 -65.891,63.539 0,35.059 29.563,63.582 65.891,63.582 36.328,0 65.879,-28.523 65.879,-63.582 0,-35.031 -29.551,-63.539 -65.879,-63.539"
         style="fill:#011f5b;fill-opacity:1;fill-rule:nonzero;stroke:none"
         id="path901"
         inkscape:connector-curvature="0" /><path
         d="m 442.414,686.559 c -8.879,9.769 -17.195,20.476 -23.262,28.296 -3.918,5.032 -7.949,10.239 -8.996,10.977 -2.222,0.898 -4.801,3.723 -8.699,8.004 -10.703,11.727 -30.625,33.562 -68.269,35.652 -16.438,0.957 -59.583,-5.097 -60.825,-14.328 l -5,0.676 c 2.168,16.09 56.848,19.187 66.098,18.691 39.707,-2.207 60.535,-25.035 71.719,-37.297 2.949,-3.226 5.718,-6.273 7.136,-6.859 1.582,-0.672 3.465,-2.953 10.821,-12.422 6.015,-7.754 14.265,-18.375 23.008,-28.004 l -3.731,-3.386"
         style="fill:#011f5b;fill-opacity:1;fill-rule:nonzero;stroke:none"
         id="path903"
         inkscape:connector-curvature="0" /><path
         d="m 314.902,674.125 -4.984,0.762 c 0.105,0.664 0.176,1.359 0.223,2.078 -1.536,0.203 -4.282,0.234 -6.075,0.258 -3.375,0.035 -5.515,0.078 -6.882,0.488 l -1.618,0.477 -0.511,1.96 c -0.231,2.18 1.863,3.329 4.277,4.653 0.453,0.25 0.856,0.457 1.07,0.609 l 0.953,-1.363 -0.359,1.91 c 10.813,4.168 18.781,9.129 19.375,12.063 0.039,0.203 0.117,0.589 -0.574,1.257 -4.149,3.996 -7.289,8.184 -9.813,11.555 -1.464,1.953 -2.773,3.703 -4.054,5.109 -4.649,5.055 -9.821,7.215 -17.278,7.215 -4.539,0 -12.449,-6.922 -17.683,-11.496 -2.203,-1.93 -4.117,-3.597 -5.508,-4.574 l -3.203,3.875 1.246,1.18 c 3.687,3.461 12.312,11.566 12.312,17.324 0,9.66 -4.773,18.758 -9.398,27.558 -3.191,6.079 -6.211,11.821 -7.691,17.676 l 4.894,1.239 c 1.332,-5.278 4.215,-10.762 7.266,-16.567 4.906,-9.34 9.98,-19.004 9.98,-29.906 0,-1.418 -0.289,-2.852 -0.793,-4.277 2.989,1.812 5.922,3.015 8.578,3.015 8.891,0 15.368,-2.73 20.996,-8.851 1.383,-1.52 2.801,-3.399 4.375,-5.5 2.543,-3.387 5.415,-7.231 9.27,-10.942 2.227,-2.144 2.324,-4.39 2.023,-5.894 -1.183,-5.813 -11.007,-11.094 -19.988,-14.766 5.817,-0.082 9.899,-0.352 9.899,-3.848 0,-1.504 -0.118,-2.933 -0.325,-4.277"
         style="fill:#011f5b;fill-opacity:1;fill-rule:nonzero;stroke:none"
         id="path905"
         inkscape:connector-curvature="0" /><path
         d="m 239.047,646.098 v 5.05 c 13.777,0 20.664,1.036 26.316,3.969 8.715,4.563 19.145,11.895 21.422,17.192 l 4.637,-1.993 c -3.832,-8.906 -20.438,-17.953 -23.727,-19.675 -7.328,-3.801 -16.05,-4.543 -28.648,-4.543"
         style="fill:#011f5b;fill-opacity:1;fill-rule:nonzero;stroke:none"
         id="path907"
         inkscape:connector-curvature="0" /><path
         d="M 23.2344,828.457 C 23.2266,785.27 23.1758,476.91 23.168,471.926 22.2578,176.484 326.43,26.7031 366.367,25.3359 c 0.149,-0.0039 0.317,-0.0039 0.481,-0.0039 21.679,-0.0039 129.875,45.3243 224.238,135.012 66.387,63.105 146.023,168.133 148.379,310.136 V 828.457 Z M 366.672,15.332 c -0.227,0 -0.442,0.0039 -0.645,0.0157 C 324.965,16.75 12.2344,169.926 13.168,471.949 c 0.0078,5.356 0.0664,361.508 0.0664,361.508 v 5 H 749.465 V 470.395 C 747.055,324.844 665.754,217.516 597.973,153.098 502.707,62.5508 392.348,15.332 366.672,15.332"
         style="fill:#011f5b;fill-opacity:1;fill-rule:nonzero;stroke:none"
         id="path909"
         inkscape:connector-curvature="0" /></g></g></svg>