<?xml version="1.0" encoding="UTF-8" standalone="no"?>
<!-- Created with Inkscape (http://www.inkscape.org/) -->

<svg
   xmlns:dc="http://purl.org/dc/elements/1.1/"
   xmlns:cc="http://creativecommons.org/ns#"
   xmlns:rdf="http://www.w3.org/1999/02/22-rdf-syntax-ns#"
   xmlns:svg="http://www.w3.org/2000/svg"
   xmlns="http://www.w3.org/2000/svg"
   xmlns:sodipodi="http://sodipodi.sourceforge.net/DTD/sodipodi-0.dtd"
   xmlns:inkscape="http://www.inkscape.org/namespaces/inkscape"
   version="1.1"
   id="svg911"
   xml:space="preserve"
   width="193"
   height="216.05333"
   viewBox="0 0 193 216.05333"
   sodipodi:docname="penn-simple.svg"
   inkscape:version="0.92.2 (5c3e80d, 2017-08-06)"><metadata
     id="metadata917"><rdf:RDF><cc:Work
         rdf:about=""><dc:format>image/svg+xml</dc:format><dc:type
           rdf:resource="http://purl.org/dc/dcmitype/StillImage" /><dc:title></dc:title></cc:Work></rdf:RDF></metadata><defs
     id="defs915" /><sodipodi:namedview
     pagecolor="#ffffff"
     bordercolor="#666666"
     borderopacity="1"
     objecttolerance="10"
     gridtolerance="10"
     guidetolerance="10"
     inkscape:pageopacity="0"
     inkscape:pageshadow="2"
     inkscape:window-width="725"
     inkscape:window-height="480"
     id="namedview913"
     showgrid="false"
     inkscape:zoom="1.0923229"
     inkscape:cx="96.5"
     inkscape:cy="108.02666"
     inkscape:window-x="0"
     inkscape:window-y="0"
     inkscape:window-maximized="0"
     inkscape:current-layer="g919" /><g
     id="g919"
     inkscape:groupmode="layer"
     inkscape:label="ink_ext_XXXXXX"
     transform="matrix(1.3333333,0,0,-1.3333333,0,216.05333)"><g
       id="g921"
       transform="scale(0.1)"><path
         d="M 345.605,313.352 C 505.914,163.211 684.59,85.9414 723.609,84.7109 762.738,85.9492 942.367,163.621 1103.09,314.551 L 725.102,684.98 345.605,313.352"
         style="fill:#ffffff;fill-opacity:1;fill-rule:nonzero;stroke:none"
         id="path923"
         inkscape:connector-curvature="0" /><path
         d="m 72.6328,891.484 c 0,-113.546 26.6836,-215.39 69.2422,-305.425 L 725.102,1114.19 1306.93,588.859 c 41.81,89.332 67.98,190.25 67.98,302.625 V 1145.33 H 72.6328 V 891.484"
         style="fill:#ffffff;fill-opacity:1;fill-rule:nonzero;stroke:none"
         id="path925"
         inkscape:connector-curvature="0" /><path
         d="m 72.6328,1145.33 h 1302.28 v 397.109 H 72.6328 Z"
         style="fill:#971a1f;fill-opacity:1;fill-rule:nonzero;stroke:none"
         id="path927"
         inkscape:connector-curvature="0" /><path
         d="M 1374.91,1145.33 V 891.484 c 0,-112.375 -26.17,-213.293 -67.98,-302.625 L 725.102,1117.85 141.875,586.059 C 99.3164,676.094 72.6328,777.938 72.6328,891.484 V 1542.44 H 1374.91 Z M 723.609,84.7109 C 684.59,85.9414 505.914,163.211 345.605,313.352 L 725.102,684.98 1103.09,314.551 C 942.367,163.621 762.738,85.9492 723.609,84.7109 Z M 0,1620.35 V 896.758 C 0,309.391 641.301,2.60156 723.59,0 c 82.312,2.60156 723.95,309.391 723.95,896.758 V 1620.35 H 0"
         style="fill:#1f2854;fill-opacity:1;fill-rule:nonzero;stroke:none"
         id="path929"
         inkscape:connector-curvature="0" /><path
         d="m 418.469,733.961 c -63.168,0 -114.145,-51.133 -114.145,-114.09 0,-63.32 50.977,-114.262 114.145,-114.262 62.996,0 114.207,50.942 114.207,114.262 0,62.957 -51.211,114.09 -114.207,114.09"
         style="fill:#ffffff;fill-opacity:1;fill-rule:nonzero;stroke:none"
         id="path931"
         inkscape:connector-curvature="0" /><path
         d="m 611.641,892.371 c 0,-63.051 51.136,-114.254 114.129,-114.254 63.015,0 114.222,51.203 114.222,114.254 0,62.875 -51.207,114.099 -114.222,114.099 -62.993,0 -114.129,-51.224 -114.129,-114.099"
         style="fill:#ffffff;fill-opacity:1;fill-rule:nonzero;stroke:none"
         id="path933"
         inkscape:connector-curvature="0" /><path
         d="m 1038.13,505.609 c 62.98,0 114.2,50.942 114.2,114.262 0,62.953 -51.22,114.082 -114.2,114.082 -63.161,0 -114.15,-51.129 -114.15,-114.082 0,-63.32 50.989,-114.262 114.15,-114.262"
         style="fill:#ffffff;fill-opacity:1;fill-rule:nonzero;stroke:none"
         id="path935"
         inkscape:connector-curvature="0" /></g></g></svg>