<?xml version="1.0" encoding="UTF-8" standalone="no"?>
<!-- Created with Inkscape (http://www.inkscape.org/) -->

<svg
   xmlns:dc="http://purl.org/dc/elements/1.1/"
   xmlns:cc="http://creativecommons.org/ns#"
   xmlns:rdf="http://www.w3.org/1999/02/22-rdf-syntax-ns#"
   xmlns:svg="http://www.w3.org/2000/svg"
   xmlns="http://www.w3.org/2000/svg"
   xmlns:sodipodi="http://sodipodi.sourceforge.net/DTD/sodipodi-0.dtd"
   xmlns:inkscape="http://www.inkscape.org/namespaces/inkscape"
   version="1.1"
   id="svg815"
   xml:space="preserve"
   width="106.33333"
   height="143.33333"
   viewBox="0 0 106.33333 143.33333"
   sodipodi:docname="ucf.svg"
   inkscape:version="0.92.2 (5c3e80d, 2017-08-06)"><metadata
     id="metadata821"><rdf:RDF><cc:Work
         rdf:about=""><dc:format>image/svg+xml</dc:format><dc:type
           rdf:resource="http://purl.org/dc/dcmitype/StillImage" /><dc:title></dc:title></cc:Work></rdf:RDF></metadata><defs
     id="defs819" /><sodipodi:namedview
     pagecolor="#ffffff"
     bordercolor="#666666"
     borderopacity="1"
     objecttolerance="10"
     gridtolerance="10"
     guidetolerance="10"
     inkscape:pageopacity="0"
     inkscape:pageshadow="2"
     inkscape:window-width="2560"
     inkscape:window-height="1361"
     id="namedview817"
     showgrid="false"
     inkscape:zoom="8.1488375"
     inkscape:cx="53.166664"
     inkscape:cy="71.666664"
     inkscape:window-x="2551"
     inkscape:window-y="-9"
     inkscape:window-maximized="1"
     inkscape:current-layer="g823" /><g
     id="g823"
     inkscape:groupmode="layer"
     inkscape:label="ink_ext_XXXXXX"
     transform="matrix(1.3333333,0,0,-1.3333333,0,143.33333)"><g
       id="g825"
       transform="scale(0.1)"><path
         d="M 0,0 H 797.5 V 1075 H 0 Z"
         style="fill:#231f20;fill-opacity:1;fill-rule:nonzero;stroke:none"
         id="path827"
         inkscape:connector-curvature="0" /><path
         d="m 152.742,215.168 v 95.887 h 36.914 v -94.934 c 0,-27.32 13.668,-41.465 36.199,-41.465 22.536,0 36.2,13.664 36.2,40.278 v 96.121 h 36.914 v -94.688 c 0,-50.82 -28.524,-75.754 -73.594,-75.754 -45.062,0 -72.633,25.168 -72.633,74.555"
         style="fill:#ffffff;fill-opacity:1;fill-rule:nonzero;stroke:none"
         id="path829"
         inkscape:connector-curvature="0" /><path
         d="m 336.363,226.672 v 0.476 c 0,47.707 35.957,86.778 87.492,86.778 31.641,0 50.579,-10.547 66.165,-25.891 l -23.497,-27.078 c -12.937,11.738 -26.125,18.938 -42.902,18.938 -28.289,0 -48.664,-23.5 -48.664,-52.258 v -0.489 c 0,-28.757 19.898,-52.734 48.664,-52.734 19.172,0 30.922,7.676 44.106,19.656 l 23.496,-23.726 c -17.27,-18.457 -36.438,-29.973 -68.801,-29.973 -49.387,0 -86.059,38.113 -86.059,86.301"
         style="fill:#ffffff;fill-opacity:1;fill-rule:nonzero;stroke:none"
         id="path831"
         inkscape:connector-curvature="0" /><path
         d="m 527.891,311.055 h 127.761 v -33.567 h -90.847 v -35.711 h 80.066 v -33.562 h -80.066 v -64.961 h -36.914 v 167.801"
         style="fill:#ffffff;fill-opacity:1;fill-rule:nonzero;stroke:none"
         id="path833"
         inkscape:connector-curvature="0" /><path
         d="m 499.211,493.098 c 0,13.855 -3.254,27.41 -9.641,40.308 -11.965,24.121 -50.222,41.692 -87.222,58.637 -18.032,8.27 -36.133,16.602 -50.473,25.27 -68.789,41.703 -91.449,92.687 -98.367,128.156 -1.883,9.648 -2.848,19.543 -2.848,29.375 0,30.371 8.988,59.148 25.317,81.008 64.89,86.929 174.941,76.89 207.121,71.753 -31.848,-1.406 -110.051,-15.464 -147.578,-89.988 -7.372,-14.637 -11.11,-29.629 -11.11,-44.582 0,-60.867 62.09,-113.433 111.969,-155.66 17.234,-14.582 33.523,-28.383 45.769,-41.164 22.122,-23.137 33.36,-47.766 33.36,-73.262 0,-29.773 -15.488,-53.554 -24.707,-65.097 5.937,11.003 8.41,23.054 8.41,35.246"
         style="fill:#eec10b;fill-opacity:1;fill-rule:nonzero;stroke:none"
         id="path835"
         inkscape:connector-curvature="0" /><path
         d="m 194.297,528.535 c 15.062,-12.742 46.699,-33.738 105.648,-50.242 30.121,-8.457 58.176,-9.121 80.703,-9.641 20.309,-0.5 36.364,-0.898 46.344,-6.484 8.262,-4.609 13.223,-11.941 13.223,-19.57 l -0.567,-4.368 c -2.89,-11.304 -18.281,-23.496 -52.769,-23.828 -103.141,-0.964 -167.531,76.75 -192.582,114.133"
         style="fill:#eec10b;fill-opacity:1;fill-rule:nonzero;stroke:none"
         id="path837"
         inkscape:connector-curvature="0" /><path
         d="m 380.461,707.234 c 0,0 42.84,71.821 87.09,83.403 53.699,14.051 83.211,-8.949 83.211,-8.949 l 14.746,29.406 22.844,-112.481 c 0,0 4.011,-10.215 -14.797,-23.015 -18.75,-12.754 -20.098,-10.215 -20.098,-10.215 0,0 -12.09,46.004 -36.25,51.109 -24.141,5.141 -24.141,-26.844 -22.812,-37.039 1.359,-10.223 21.875,-52.109 56.367,-34.504 37.59,19.16 55.031,43.449 55.031,43.449 0,0 5.367,12.762 10.75,8.946 5.352,-3.828 25.477,-25.567 25.477,-25.567 l -8.055,-134.199 c 0,0 0,-16.633 -22.805,-23.008 -22.808,-6.394 -22.808,-5.105 -22.808,-5.105 l 12.058,40.918 h 14.766 l -4.016,94.566 c 0,0 -12.722,-61.719 -36.238,-102.281 -28.164,-48.535 -73.828,-88.164 -73.828,-88.164 0,0 28.867,34.402 24.277,76.355 -3.008,27.793 -15.117,59.911 -75.215,109.5 -33.965,28.039 -69.695,66.875 -69.695,66.875"
         style="fill:#eec10b;fill-opacity:1;fill-rule:nonzero;stroke:none"
         id="path839"
         inkscape:connector-curvature="0" /><path
         d="m 450.527,445.859 c 0,4.278 -0.925,8.235 -2.773,11.746 -6.738,12.891 -25.098,19.946 -54.563,20.958 -53.621,1.835 -182.211,15.238 -218.25,100.332 -11.55,27.343 -17.441,57.101 -17.441,88.5 0,35.847 7.652,65.105 12.805,80.898 -0.633,-4.328 -0.965,-12.348 -0.965,-12.348 0,-33.582 8.055,-96.558 62.051,-141.25 34.257,-28.386 85.582,-50.777 152.519,-66.57 45.367,-10.691 71.266,-26.926 76.988,-48.176 l 1.165,-9.019 c 0,-10.52 -4.7,-21.653 -13.34,-33.032 0.886,2.747 1.804,7.961 1.804,7.961"
         style="fill:#eec10b;fill-opacity:1;fill-rule:nonzero;stroke:none"
         id="path841"
         inkscape:connector-curvature="0" /><path
         d="m 474.297,469.773 c 0,6.028 -1.055,12.622 -3.945,19.399 -9.805,23.008 -37.149,39.527 -81.293,49.141 -115.801,25.242 -181.407,71.531 -200.547,141.531 -4.723,17.304 -6.824,33.476 -6.824,48.562 0,95.989 84.449,147.571 113.152,162.309 -15.363,-14.445 -48.082,-49.848 -54.211,-94.77 -1.098,-8.101 -1.668,-16.101 -1.668,-23.953 0,-57.051 29.437,-107.156 89.457,-152.551 18.988,-14.343 44.504,-25.878 69.148,-37.007 35.481,-16.047 68.977,-31.184 82.129,-53.286 6.555,-11.023 9.028,-21.753 9.028,-31.609 0,-20.566 -10.598,-37.394 -17.766,-46.516 1.738,4.907 3.34,11.321 3.34,18.75"
         style="fill:#eec10b;fill-opacity:1;fill-rule:nonzero;stroke:none"
         id="path843"
         inkscape:connector-curvature="0" /><path
         d="m 470.938,863.625 c -18.75,0 -36.172,17.383 -36.172,36.16 0,-18.777 -17.411,-36.16 -36.161,-36.16 18.75,0 36.161,-17.434 36.161,-36.184 0,18.75 17.422,36.184 36.172,36.184"
         style="fill:#eec10b;fill-opacity:1;fill-rule:nonzero;stroke:none"
         id="path845"
         inkscape:connector-curvature="0" /></g></g></svg>